<?xml version="1.0" encoding="UTF-8"?>
<!DOCTYPE svg PUBLIC "-//W3C//DTD SVG 1.1//EN" "http://www.w3.org/Graphics/SVG/1.1/DTD/svg11.dtd">
<svg xmlns="http://www.w3.org/2000/svg" xmlns:xlink="http://www.w3.org/1999/xlink" version="1.1" width="422px" height="262px" viewBox="-0.5 -0.5 422 262"><defs><style type="text/css">@import url(https://fonts.googleapis.com/css?family=Roboto);&#xa;</style></defs><g><path d="M 90 130 L 110 130 Q 130 130 130 110 L 130 70 Q 130 50 145.88 50 L 161.76 50" fill="none" stroke="#b85450" stroke-width="2" stroke-miterlimit="10" pointer-events="stroke"/><path d="M 167.76 50 L 159.76 54 L 161.76 50 L 159.76 46 Z" fill="#b85450" stroke="#b85450" stroke-width="2" stroke-miterlimit="10" pointer-events="all"/><path d="M 90 130 L 110 130 Q 130 130 130 150 L 130 190 Q 130 210 145.88 210 L 161.76 210" fill="none" stroke="#b85450" stroke-width="2" stroke-miterlimit="10" pointer-events="stroke"/><path d="M 167.76 210 L 159.76 214 L 161.76 210 L 159.76 206 Z" fill="#b85450" stroke="#b85450" stroke-width="2" stroke-miterlimit="10" pointer-events="all"/><rect x="10" y="90" width="80" height="80" fill="#fff2cc" stroke="#d6b656" stroke-width="2" pointer-events="all"/><g fill="#000000" font-family="Roboto" text-anchor="middle" font-size="32px"><text x="49.5" y="143.5">A</text></g><path d="M 250 50 L 270 50 Q 290 50 290 70 L 290 90 Q 290 110 305.88 110 L 321.76 110" fill="none" stroke="#b85450" stroke-width="2" stroke-miterlimit="10" pointer-events="stroke"/><path d="M 327.76 110 L 319.76 114 L 321.76 110 L 319.76 106 Z" fill="#b85450" stroke="#b85450" stroke-width="2" stroke-miterlimit="10" pointer-events="all"/><rect x="170" y="10" width="80" height="80" fill="#fff2cc" stroke="#d6b656" stroke-width="2" pointer-events="all"/><g fill="#000000" font-family="Roboto" text-anchor="middle" font-size="32px"><text x="209.5" y="63.5">B</text></g><path d="M 250 210 L 270 210 Q 290 210 290 190 L 290 170 Q 290 150 305.88 150 L 321.76 150" fill="none" stroke="#b85450" stroke-width="2" stroke-miterlimit="10" pointer-events="stroke"/><path d="M 327.76 150 L 319.76 154 L 321.76 150 L 319.76 146 Z" fill="#b85450" stroke="#b85450" stroke-width="2" stroke-miterlimit="10" pointer-events="all"/><rect x="170" y="170" width="80" height="80" fill="#fff2cc" stroke="#d6b656" stroke-width="2" pointer-events="all"/><g fill="#000000" font-family="Roboto" text-anchor="middle" font-size="32px"><text x="209.5" y="223.5">C</text></g><rect x="330" y="90" width="80" height="80" fill="#fff2cc" stroke="#d6b656" stroke-width="2" pointer-events="all"/><g fill="#000000" font-family="Roboto" text-anchor="middle" font-size="32px"><text x="369.5" y="143.5">D</text></g></g></svg>