<?xml version="1.0" encoding="UTF-8"?>
<!DOCTYPE svg PUBLIC "-//W3C//DTD SVG 1.1//EN" "http://www.w3.org/Graphics/SVG/1.1/DTD/svg11.dtd">
<svg xmlns="http://www.w3.org/2000/svg" xmlns:xlink="http://www.w3.org/1999/xlink" version="1.1" width="582px" height="262px" viewBox="-0.5 -0.5 582 262"><defs><style type="text/css">@import url(https://fonts.googleapis.com/css?family=Roboto);&#xa;</style></defs><g><path d="M 90 50 L 110 50 Q 130 50 130 70 L 130 90 Q 130 110 145.88 110 L 161.76 110" fill="none" stroke="#b85450" stroke-width="2" stroke-miterlimit="10" pointer-events="stroke"/><path d="M 167.76 110 L 159.76 114 L 161.76 110 L 159.76 106 Z" fill="#b85450" stroke="#b85450" stroke-width="2" stroke-miterlimit="10" pointer-events="all"/><rect x="10" y="10" width="80" height="80" fill="#fff2cc" stroke="#d6b656" stroke-width="2" pointer-events="all"/><g fill="#000000" font-family="Roboto" text-anchor="middle" font-size="32px"><text x="49.5" y="63.5">A</text></g><path d="M 90 210 L 110 210 Q 130 210 130 190 L 130 170 Q 130 150 145.88 150 L 161.76 150" fill="none" stroke="#b85450" stroke-width="2" stroke-miterlimit="10" pointer-events="stroke"/><path d="M 167.76 150 L 159.76 154 L 161.76 150 L 159.76 146 Z" fill="#b85450" stroke="#b85450" stroke-width="2" stroke-miterlimit="10" pointer-events="all"/><rect x="10" y="170" width="80" height="80" fill="#fff2cc" stroke="#d6b656" stroke-width="2" pointer-events="all"/><g fill="#000000" font-family="Roboto" text-anchor="middle" font-size="32px"><text x="49.5" y="223.5">B</text></g><path d="M 250 130 L 481.76 130" fill="none" stroke="#b85450" stroke-width="2" stroke-miterlimit="10" pointer-events="stroke"/><path d="M 487.76 130 L 479.76 134 L 481.76 130 L 479.76 126 Z" fill="#b85450" stroke="#b85450" stroke-width="2" stroke-miterlimit="10" pointer-events="all"/><path d="M 250 130 L 270 130 Q 290 130 290 110 L 290 70 Q 290 50 305.88 50 L 321.76 50" fill="none" stroke="#b85450" stroke-width="2" stroke-miterlimit="10" pointer-events="stroke"/><path d="M 327.76 50 L 319.76 54 L 321.76 50 L 319.76 46 Z" fill="#b85450" stroke="#b85450" stroke-width="2" stroke-miterlimit="10" pointer-events="all"/><path d="M 250 130 L 270 130 Q 290 130 290 150 L 290 190 Q 290 210 305.88 210 L 321.76 210" fill="none" stroke="#b85450" stroke-width="2" stroke-miterlimit="10" pointer-events="stroke"/><path d="M 327.76 210 L 319.76 214 L 321.76 210 L 319.76 206 Z" fill="#b85450" stroke="#b85450" stroke-width="2" stroke-miterlimit="10" pointer-events="all"/><rect x="170" y="90" width="80" height="80" fill="#fff2cc" stroke="#d6b656" stroke-width="2" pointer-events="all"/><g fill="#000000" font-family="Roboto" text-anchor="middle" font-size="32px"><text x="209.5" y="143.5">C</text></g><rect x="330" y="10" width="80" height="80" fill="#fff2cc" stroke="#d6b656" stroke-width="2" pointer-events="all"/><g fill="#000000" font-family="Roboto" text-anchor="middle" font-size="32px"><text x="369.5" y="63.5">D</text></g><path d="M 410 210 L 430 210 Q 450 210 450 190 L 450 170 Q 450 150 465.88 150 L 481.76 150" fill="none" stroke="#b85450" stroke-width="2" stroke-miterlimit="10" pointer-events="stroke"/><path d="M 487.76 150 L 479.76 154 L 481.76 150 L 479.76 146 Z" fill="#b85450" stroke="#b85450" stroke-width="2" stroke-miterlimit="10" pointer-events="all"/><rect x="330" y="170" width="80" height="80" fill="#fff2cc" stroke="#d6b656" stroke-width="2" pointer-events="all"/><g fill="#000000" font-family="Roboto" text-anchor="middle" font-size="32px"><text x="369.5" y="223.5">E</text></g><rect x="490" y="90" width="80" height="80" fill="#fff2cc" stroke="#d6b656" stroke-width="2" pointer-events="all"/><g fill="#000000" font-family="Roboto" text-anchor="middle" font-size="32px"><text x="529.5" y="143.5">F</text></g></g></svg>