<?xml version="1.0" encoding="UTF-8"?>
<!DOCTYPE svg PUBLIC "-//W3C//DTD SVG 1.1//EN" "http://www.w3.org/Graphics/SVG/1.1/DTD/svg11.dtd">
<svg xmlns="http://www.w3.org/2000/svg" xmlns:xlink="http://www.w3.org/1999/xlink" version="1.1" width="1592px" height="563px" viewBox="-0.5 -0.5 1592 563"><defs><style type="text/css">@import url(https://fonts.googleapis.com/css?family=Roboto);&#xa;</style></defs><g><path d="M 1540 512 L 1540 12" fill="none" stroke="#999999" stroke-width="4" stroke-miterlimit="10" stroke-dasharray="4 4" pointer-events="stroke"/><path d="M 100 512 L 100 12" fill="none" stroke="#999999" stroke-width="4" stroke-miterlimit="10" stroke-dasharray="4 4" pointer-events="stroke"/><path d="M 260 512 L 260 12" fill="none" stroke="#999999" stroke-width="4" stroke-miterlimit="10" stroke-dasharray="4 4" pointer-events="stroke"/><path d="M 420 512 L 420 12" fill="none" stroke="#999999" stroke-width="4" stroke-miterlimit="10" stroke-dasharray="4 4" pointer-events="stroke"/><path d="M 580 512 L 580 12" fill="none" stroke="#999999" stroke-width="4" stroke-miterlimit="10" stroke-dasharray="4 4" pointer-events="stroke"/><path d="M 740 512 L 740 12" fill="none" stroke="#999999" stroke-width="4" stroke-miterlimit="10" stroke-dasharray="4 4" pointer-events="stroke"/><path d="M 900 512 L 900 12" fill="none" stroke="#999999" stroke-width="4" stroke-miterlimit="10" stroke-dasharray="4 4" pointer-events="stroke"/><path d="M 1060 512 L 1060 12" fill="none" stroke="#999999" stroke-width="4" stroke-miterlimit="10" stroke-dasharray="4 4" pointer-events="stroke"/><path d="M 1220 512 L 1220 12" fill="none" stroke="#999999" stroke-width="4" stroke-miterlimit="10" stroke-dasharray="4 4" pointer-events="stroke"/><path d="M 1380 512 L 1380 12" fill="none" stroke="#999999" stroke-width="4" stroke-miterlimit="10" stroke-dasharray="4 4" pointer-events="stroke"/><rect x="80" y="12" width="1480" height="160" rx="19.2" ry="19.2" fill="none" stroke="#6c8ebf" stroke-width="2" pointer-events="all"/><rect x="60" y="512" width="80" height="40" rx="6" ry="6" fill="none" stroke="none" pointer-events="all"/><g fill="#999999" font-family="Roboto" font-weight="bold" text-anchor="middle" font-size="24px"><text x="99.5" y="541.5">0</text></g><rect x="10" y="32" width="90" height="40" rx="20" ry="20" fill="#dae8fc" stroke="#6c8ebf" stroke-width="2" pointer-events="all"/><g fill="#003366" font-family="Roboto" font-weight="bold" text-anchor="middle" font-size="24px"><text x="54.5" y="61.5">Job 1</text></g><rect x="80" y="172" width="1480" height="160" rx="19.2" ry="19.2" fill="none" stroke="#6c8ebf" stroke-width="2" pointer-events="all"/><rect x="10" y="192" width="90" height="40" rx="20" ry="20" fill="#dae8fc" stroke="#6c8ebf" stroke-width="2" pointer-events="all"/><g fill="#003366" font-family="Roboto" font-weight="bold" text-anchor="middle" font-size="24px"><text x="54.5" y="221.5">Job 2</text></g><rect x="80" y="332" width="1480" height="160" rx="19.2" ry="19.2" fill="none" stroke="#6c8ebf" stroke-width="2" pointer-events="all"/><rect x="10" y="352" width="90" height="40" rx="20" ry="20" fill="#dae8fc" stroke="#6c8ebf" stroke-width="2" pointer-events="all"/><g fill="#003366" font-family="Roboto" font-weight="bold" text-anchor="middle" font-size="24px"><text x="54.5" y="381.5">Job 3</text></g><rect x="220" y="512" width="80" height="40" rx="6" ry="6" fill="none" stroke="none" pointer-events="all"/><g fill="#999999" font-family="Roboto" font-weight="bold" text-anchor="middle" font-size="24px"><text x="259.5" y="541.5">1</text></g><rect x="380" y="512" width="80" height="40" rx="6" ry="6" fill="none" stroke="none" pointer-events="all"/><g fill="#999999" font-family="Roboto" font-weight="bold" text-anchor="middle" font-size="24px"><text x="419.5" y="541.5">2</text></g><rect x="540" y="512" width="80" height="40" rx="6" ry="6" fill="none" stroke="none" pointer-events="all"/><g fill="#999999" font-family="Roboto" font-weight="bold" text-anchor="middle" font-size="24px"><text x="579.5" y="541.5">3</text></g><rect x="700" y="512" width="80" height="40" rx="6" ry="6" fill="none" stroke="none" pointer-events="all"/><g fill="#999999" font-family="Roboto" font-weight="bold" text-anchor="middle" font-size="24px"><text x="739.5" y="541.5">4</text></g><rect x="860" y="512" width="80" height="40" rx="6" ry="6" fill="none" stroke="none" pointer-events="all"/><g fill="#999999" font-family="Roboto" font-weight="bold" text-anchor="middle" font-size="24px"><text x="899.5" y="541.5">5</text></g><rect x="1020" y="512" width="80" height="40" rx="6" ry="6" fill="none" stroke="none" pointer-events="all"/><g fill="#999999" font-family="Roboto" font-weight="bold" text-anchor="middle" font-size="24px"><text x="1059.5" y="541.5">6</text></g><rect x="1180" y="512" width="80" height="40" rx="6" ry="6" fill="none" stroke="none" pointer-events="all"/><g fill="#999999" font-family="Roboto" font-weight="bold" text-anchor="middle" font-size="24px"><text x="1219.5" y="541.5">7</text></g><rect x="1340" y="512" width="80" height="40" rx="6" ry="6" fill="none" stroke="none" pointer-events="all"/><g fill="#999999" font-family="Roboto" font-weight="bold" text-anchor="middle" font-size="24px"><text x="1379.5" y="541.5">8</text></g><rect x="1500" y="512" width="80" height="40" rx="6" ry="6" fill="none" stroke="none" pointer-events="all"/><g fill="#999999" font-family="Roboto" font-weight="bold" text-anchor="middle" font-size="24px"><text x="1539.5" y="541.5">9</text></g><rect x="280" y="72" width="760" height="40" rx="6" ry="6" fill="#fff2cc" stroke="#d6b656" stroke-width="2" pointer-events="all"/><g fill="#000000" font-family="Roboto" text-anchor="middle" font-size="28px"><text x="659.5" y="103.5">B</text></g><rect x="1080" y="112" width="120" height="40" rx="6" ry="6" fill="#fff2cc" stroke="#d6b656" stroke-width="2" pointer-events="all"/><g fill="#000000" font-family="Roboto" text-anchor="middle" font-size="28px"><text x="1139.5" y="143.5">C</text></g><rect x="120" y="32" width="120" height="40" rx="6" ry="6" fill="#fff2cc" stroke="#d6b656" stroke-width="2" pointer-events="all"/><g fill="#000000" font-family="Roboto" text-anchor="middle" font-size="28px"><text x="179.5" y="63.5">A</text></g><rect x="280" y="192" width="120" height="40" rx="6" ry="6" fill="#fff2cc" stroke="#d6b656" stroke-width="2" pointer-events="all"/><g fill="#000000" font-family="Roboto" text-anchor="middle" font-size="28px"><text x="339.5" y="223.5">A</text></g><rect x="440" y="232" width="760" height="40" rx="6" ry="6" fill="#fff2cc" stroke="#d6b656" stroke-width="2" pointer-events="all"/><g fill="#000000" font-family="Roboto" text-anchor="middle" font-size="28px"><text x="819.5" y="263.5">B</text></g><rect x="1240" y="272" width="120" height="40" rx="6" ry="6" fill="#fff2cc" stroke="#d6b656" stroke-width="2" pointer-events="all"/><g fill="#000000" font-family="Roboto" text-anchor="middle" font-size="28px"><text x="1299.5" y="303.5">C</text></g><rect x="440" y="352" width="120" height="40" rx="6" ry="6" fill="#fff2cc" stroke="#d6b656" stroke-width="2" pointer-events="all"/><g fill="#000000" font-family="Roboto" text-anchor="middle" font-size="28px"><text x="499.5" y="383.5">A</text></g><rect x="600" y="392" width="760" height="40" rx="6" ry="6" fill="#fff2cc" stroke="#d6b656" stroke-width="2" pointer-events="all"/><g fill="#000000" font-family="Roboto" text-anchor="middle" font-size="28px"><text x="979.5" y="423.5">B</text></g><rect x="1400" y="432" width="120" height="40" rx="6" ry="6" fill="#fff2cc" stroke="#d6b656" stroke-width="2" pointer-events="all"/><g fill="#000000" font-family="Roboto" text-anchor="middle" font-size="28px"><text x="1459.5" y="463.5">C</text></g></g></svg>