<?xml version="1.0" encoding="UTF-8"?>
<!DOCTYPE svg PUBLIC "-//W3C//DTD SVG 1.1//EN" "http://www.w3.org/Graphics/SVG/1.1/DTD/svg11.dtd">
<svg xmlns="http://www.w3.org/2000/svg" xmlns:xlink="http://www.w3.org/1999/xlink" version="1.1" width="1832px" height="563px" viewBox="-0.5 -0.5 1832 563"><defs><style type="text/css">@import url(https://fonts.googleapis.com/css?family=Roboto);&#xa;</style></defs><g><path d="M 1540 512 L 1540 12" fill="none" stroke="#999999" stroke-width="4" stroke-miterlimit="10" stroke-dasharray="4 4" pointer-events="stroke"/><path d="M 100 512 L 100 12" fill="none" stroke="#999999" stroke-width="4" stroke-miterlimit="10" stroke-dasharray="4 4" pointer-events="stroke"/><path d="M 260 512 L 260 12" fill="none" stroke="#999999" stroke-width="4" stroke-miterlimit="10" stroke-dasharray="4 4" pointer-events="stroke"/><path d="M 420 512 L 420 12" fill="none" stroke="#999999" stroke-width="4" stroke-miterlimit="10" stroke-dasharray="4 4" pointer-events="stroke"/><path d="M 580 512 L 580 12" fill="none" stroke="#999999" stroke-width="4" stroke-miterlimit="10" stroke-dasharray="4 4" pointer-events="stroke"/><path d="M 740 512 L 740 12" fill="none" stroke="#999999" stroke-width="4" stroke-miterlimit="10" stroke-dasharray="4 4" pointer-events="stroke"/><path d="M 900 512 L 900 12" fill="none" stroke="#999999" stroke-width="4" stroke-miterlimit="10" stroke-dasharray="4 4" pointer-events="stroke"/><path d="M 1060 512 L 1060 12" fill="none" stroke="#999999" stroke-width="4" stroke-miterlimit="10" stroke-dasharray="4 4" pointer-events="stroke"/><path d="M 1220 512 L 1220 12" fill="none" stroke="#999999" stroke-width="4" stroke-miterlimit="10" stroke-dasharray="4 4" pointer-events="stroke"/><path d="M 1380 512 L 1380 12" fill="none" stroke="#999999" stroke-width="4" stroke-miterlimit="10" stroke-dasharray="4 4" pointer-events="stroke"/><rect x="80" y="12" width="1720" height="160" rx="19.2" ry="19.2" fill="none" stroke="#6c8ebf" stroke-width="2" pointer-events="all"/><rect x="60" y="512" width="80" height="40" rx="6" ry="6" fill="none" stroke="none" pointer-events="all"/><g fill="#999999" font-family="Roboto" font-weight="bold" text-anchor="middle" font-size="24px"><text x="99.5" y="541.5">0</text></g><rect x="10" y="32" width="90" height="40" rx="20" ry="20" fill="#dae8fc" stroke="#6c8ebf" stroke-width="2" pointer-events="all"/><g fill="#003366" font-family="Roboto" font-weight="bold" text-anchor="middle" font-size="24px"><text x="54.5" y="61.5">Job 1</text></g><rect x="80" y="172" width="1720" height="160" rx="19.2" ry="19.2" fill="none" stroke="#6c8ebf" stroke-width="2" pointer-events="all"/><rect x="10" y="192" width="90" height="40" rx="20" ry="20" fill="#dae8fc" stroke="#6c8ebf" stroke-width="2" pointer-events="all"/><g fill="#003366" font-family="Roboto" font-weight="bold" text-anchor="middle" font-size="24px"><text x="54.5" y="221.5">Job 2</text></g><rect x="80" y="332" width="1720" height="160" rx="19.2" ry="19.2" fill="none" stroke="#6c8ebf" stroke-width="2" pointer-events="all"/><rect x="10" y="352" width="90" height="40" rx="20" ry="20" fill="#dae8fc" stroke="#6c8ebf" stroke-width="2" pointer-events="all"/><g fill="#003366" font-family="Roboto" font-weight="bold" text-anchor="middle" font-size="24px"><text x="54.5" y="381.5">Job 3</text></g><path d="M 180 512 L 180 12" fill="none" stroke="#999999" stroke-width="4" stroke-miterlimit="10" stroke-dasharray="4 4" pointer-events="stroke"/><path d="M 339.52 512 L 339.52 12" fill="none" stroke="#999999" stroke-width="4" stroke-miterlimit="10" stroke-dasharray="4 4" pointer-events="stroke"/><path d="M 499.52 512 L 499.52 12" fill="none" stroke="#999999" stroke-width="4" stroke-miterlimit="10" stroke-dasharray="4 4" pointer-events="stroke"/><path d="M 660 512 L 660 12" fill="none" stroke="#999999" stroke-width="4" stroke-miterlimit="10" stroke-dasharray="4 4" pointer-events="stroke"/><path d="M 819.52 512 L 819.52 12" fill="none" stroke="#999999" stroke-width="4" stroke-miterlimit="10" stroke-dasharray="4 4" pointer-events="stroke"/><path d="M 979.52 512 L 979.52 12" fill="none" stroke="#999999" stroke-width="4" stroke-miterlimit="10" stroke-dasharray="4 4" pointer-events="stroke"/><path d="M 1140 512 L 1140 12" fill="none" stroke="#999999" stroke-width="4" stroke-miterlimit="10" stroke-dasharray="4 4" pointer-events="stroke"/><path d="M 1299.52 512 L 1299.52 12" fill="none" stroke="#999999" stroke-width="4" stroke-miterlimit="10" stroke-dasharray="4 4" pointer-events="stroke"/><path d="M 1459.52 512 L 1459.52 12" fill="none" stroke="#999999" stroke-width="4" stroke-miterlimit="10" stroke-dasharray="4 4" pointer-events="stroke"/><path d="M 1620 512 L 1620 12" fill="none" stroke="#999999" stroke-width="4" stroke-miterlimit="10" stroke-dasharray="4 4" pointer-events="stroke"/><path d="M 1700 512 L 1700 12" fill="none" stroke="#999999" stroke-width="4" stroke-miterlimit="10" stroke-dasharray="4 4" pointer-events="stroke"/><rect x="140" y="512" width="80" height="40" rx="6" ry="6" fill="none" stroke="none" pointer-events="all"/><g fill="#999999" font-family="Roboto" font-weight="bold" text-anchor="middle" font-size="24px"><text x="179.5" y="541.5">1</text></g><rect x="220" y="512" width="80" height="40" rx="6" ry="6" fill="none" stroke="none" pointer-events="all"/><g fill="#999999" font-family="Roboto" font-weight="bold" text-anchor="middle" font-size="24px"><text x="259.5" y="541.5">2</text></g><rect x="300" y="512" width="80" height="40" rx="6" ry="6" fill="none" stroke="none" pointer-events="all"/><g fill="#999999" font-family="Roboto" font-weight="bold" text-anchor="middle" font-size="24px"><text x="339.5" y="541.5">3</text></g><rect x="380" y="512" width="80" height="40" rx="6" ry="6" fill="none" stroke="none" pointer-events="all"/><g fill="#999999" font-family="Roboto" font-weight="bold" text-anchor="middle" font-size="24px"><text x="419.5" y="541.5">4</text></g><rect x="460" y="512" width="80" height="40" rx="6" ry="6" fill="none" stroke="none" pointer-events="all"/><g fill="#999999" font-family="Roboto" font-weight="bold" text-anchor="middle" font-size="24px"><text x="499.5" y="541.5">5</text></g><rect x="540" y="512" width="80" height="40" rx="6" ry="6" fill="none" stroke="none" pointer-events="all"/><g fill="#999999" font-family="Roboto" font-weight="bold" text-anchor="middle" font-size="24px"><text x="579.5" y="541.5">6</text></g><rect x="620" y="512" width="80" height="40" rx="6" ry="6" fill="none" stroke="none" pointer-events="all"/><g fill="#999999" font-family="Roboto" font-weight="bold" text-anchor="middle" font-size="24px"><text x="659.5" y="541.5">7</text></g><rect x="700" y="512" width="80" height="40" rx="6" ry="6" fill="none" stroke="none" pointer-events="all"/><g fill="#999999" font-family="Roboto" font-weight="bold" text-anchor="middle" font-size="24px"><text x="739.5" y="541.5">8</text></g><rect x="780" y="512" width="80" height="40" rx="6" ry="6" fill="none" stroke="none" pointer-events="all"/><g fill="#999999" font-family="Roboto" font-weight="bold" text-anchor="middle" font-size="24px"><text x="819.5" y="541.5">9</text></g><rect x="860" y="512" width="80" height="40" rx="6" ry="6" fill="none" stroke="none" pointer-events="all"/><g fill="#999999" font-family="Roboto" font-weight="bold" text-anchor="middle" font-size="24px"><text x="899.5" y="541.5">10</text></g><rect x="940" y="512" width="80" height="40" rx="6" ry="6" fill="none" stroke="none" pointer-events="all"/><g fill="#999999" font-family="Roboto" font-weight="bold" text-anchor="middle" font-size="24px"><text x="979.5" y="541.5">11</text></g><rect x="1020" y="512" width="80" height="40" rx="6" ry="6" fill="none" stroke="none" pointer-events="all"/><g fill="#999999" font-family="Roboto" font-weight="bold" text-anchor="middle" font-size="24px"><text x="1059.5" y="541.5">12</text></g><rect x="1100" y="512" width="80" height="40" rx="6" ry="6" fill="none" stroke="none" pointer-events="all"/><g fill="#999999" font-family="Roboto" font-weight="bold" text-anchor="middle" font-size="24px"><text x="1139.5" y="541.5">13</text></g><rect x="1180" y="512" width="80" height="40" rx="6" ry="6" fill="none" stroke="none" pointer-events="all"/><g fill="#999999" font-family="Roboto" font-weight="bold" text-anchor="middle" font-size="24px"><text x="1219.5" y="541.5">14</text></g><rect x="1260" y="512" width="80" height="40" rx="6" ry="6" fill="none" stroke="none" pointer-events="all"/><g fill="#999999" font-family="Roboto" font-weight="bold" text-anchor="middle" font-size="24px"><text x="1299.5" y="541.5">15</text></g><rect x="1340" y="512" width="80" height="40" rx="6" ry="6" fill="none" stroke="none" pointer-events="all"/><g fill="#999999" font-family="Roboto" font-weight="bold" text-anchor="middle" font-size="24px"><text x="1379.5" y="541.5">16</text></g><rect x="1420" y="512" width="80" height="40" rx="6" ry="6" fill="none" stroke="none" pointer-events="all"/><g fill="#999999" font-family="Roboto" font-weight="bold" text-anchor="middle" font-size="24px"><text x="1459.5" y="541.5">17</text></g><rect x="1580" y="512" width="80" height="40" rx="6" ry="6" fill="none" stroke="none" pointer-events="all"/><g fill="#999999" font-family="Roboto" font-weight="bold" text-anchor="middle" font-size="24px"><text x="1619.5" y="541.5">19</text></g><rect x="1660" y="512" width="80" height="40" rx="6" ry="6" fill="none" stroke="none" pointer-events="all"/><g fill="#999999" font-family="Roboto" font-weight="bold" text-anchor="middle" font-size="24px"><text x="1699.5" y="541.5">20</text></g><rect x="1500" y="512" width="80" height="40" rx="6" ry="6" fill="none" stroke="none" pointer-events="all"/><g fill="#999999" font-family="Roboto" font-weight="bold" text-anchor="middle" font-size="24px"><text x="1539.5" y="541.5">18</text></g><path d="M 1780 512 L 1780 12" fill="none" stroke="#999999" stroke-width="4" stroke-miterlimit="10" stroke-dasharray="4 4" pointer-events="stroke"/><rect x="1740" y="512" width="80" height="40" rx="6" ry="6" fill="none" stroke="none" pointer-events="all"/><g fill="#999999" font-family="Roboto" font-weight="bold" text-anchor="middle" font-size="24px"><text x="1779.5" y="541.5">21</text></g><rect x="200" y="72" width="360" height="40" rx="6" ry="6" fill="#fff2cc" stroke="#d6b656" stroke-width="2" pointer-events="all"/><g fill="#000000" font-family="Roboto" text-anchor="middle" font-size="28px"><text x="379.5" y="103.5">B</text></g><rect x="600" y="112" width="40" height="40" rx="6" ry="6" fill="#fff2cc" stroke="#d6b656" stroke-width="2" pointer-events="all"/><g fill="#000000" font-family="Roboto" text-anchor="middle" font-size="28px"><text x="619.5" y="143.5">C</text></g><rect x="120" y="32" width="40" height="40" rx="6" ry="6" fill="#fff2cc" stroke="#d6b656" stroke-width="2" pointer-events="all"/><g fill="#000000" font-family="Roboto" text-anchor="middle" font-size="28px"><text x="139.5" y="63.5">A</text></g><rect x="200" y="192" width="40" height="40" rx="6" ry="6" fill="#fff2cc" stroke="#d6b656" stroke-width="2" pointer-events="all"/><g fill="#000000" font-family="Roboto" text-anchor="middle" font-size="28px"><text x="219.5" y="223.5">A</text></g><rect x="280" y="232" width="360" height="40" rx="6" ry="6" fill="#fff2cc" stroke="#d6b656" stroke-width="2" pointer-events="all"/><g fill="#000000" font-family="Roboto" text-anchor="middle" font-size="28px"><text x="459.5" y="263.5">B</text></g><rect x="680" y="272" width="40" height="40" rx="6" ry="6" fill="#fff2cc" stroke="#d6b656" stroke-width="2" pointer-events="all"/><g fill="#000000" font-family="Roboto" text-anchor="middle" font-size="28px"><text x="699.5" y="303.5">C</text></g><rect x="280" y="352" width="40" height="40" rx="6" ry="6" fill="#fff2cc" stroke="#d6b656" stroke-width="2" pointer-events="all"/><g fill="#000000" font-family="Roboto" text-anchor="middle" font-size="28px"><text x="299.5" y="383.5">A</text></g><rect x="360" y="392" width="360" height="40" rx="6" ry="6" fill="#fff2cc" stroke="#d6b656" stroke-width="2" pointer-events="all"/><g fill="#000000" font-family="Roboto" text-anchor="middle" font-size="28px"><text x="539.5" y="423.5">B</text></g><rect x="760" y="432" width="40" height="40" rx="6" ry="6" fill="#fff2cc" stroke="#d6b656" stroke-width="2" pointer-events="all"/><g fill="#000000" font-family="Roboto" text-anchor="middle" font-size="28px"><text x="779.5" y="463.5">C</text></g></g></svg>