<?xml version="1.0" encoding="UTF-8"?>
<!DOCTYPE svg PUBLIC "-//W3C//DTD SVG 1.1//EN" "http://www.w3.org/Graphics/SVG/1.1/DTD/svg11.dtd">
<svg xmlns="http://www.w3.org/2000/svg" xmlns:xlink="http://www.w3.org/1999/xlink" version="1.1" width="1142px" height="402px" viewBox="-0.5 -0.5 1142 402"><defs><style type="text/css">@import url(https://fonts.googleapis.com/css?family=Roboto);&#xa;</style></defs><g><rect x="10" y="10" width="1120" height="380" fill-opacity="0" fill="#000000" stroke="none" pointer-events="none"/><rect x="630" y="190" width="340" height="180" rx="19.8" ry="19.8" fill="none" stroke="#82b366" stroke-width="2" pointer-events="none"/><rect x="730" y="180" width="140" height="20" rx="10" ry="10" fill="#d5e8d4" stroke="#82b366" stroke-width="2" pointer-events="none"/><g fill="#003300" font-family="Roboto" font-weight="bold" pointer-events="none" text-anchor="middle" font-size="16px"><text x="799.5" y="195.5">replicas = 3</text></g><rect x="850" y="230" width="80" height="80" fill-opacity="0.25" fill="#e1d5e7" stroke="#9673a6" stroke-opacity="0.25" stroke-width="2" pointer-events="none"/><rect x="670" y="210" width="280" height="120" rx="18" ry="18" fill="none" stroke="#b85450" stroke-opacity="0.25" stroke-width="2" pointer-events="none"/><rect x="690" y="230" width="80" height="80" fill-opacity="0.25" fill="#e1d5e7" stroke="#9673a6" stroke-opacity="0.25" stroke-width="2" pointer-events="none"/><path d="M 770 270 L 841.76 270" fill="none" stroke="#9673a6" stroke-opacity="0.25" stroke-width="2" stroke-miterlimit="10" pointer-events="none"/><path d="M 847.76 270 L 839.76 274 L 841.76 270 L 839.76 266 Z" fill-opacity="0.25" fill="#9673a6" stroke="#9673a6" stroke-opacity="0.25" stroke-width="2" stroke-miterlimit="10" pointer-events="none"/><rect x="840" y="240" width="80" height="80" fill-opacity="0.25" fill="#e1d5e7" stroke="#9673a6" stroke-opacity="0.25" stroke-width="2" pointer-events="none"/><rect x="660" y="220" width="280" height="120" rx="18" ry="18" fill="none" stroke="#b85450" stroke-opacity="0.25" stroke-width="2" pointer-events="none"/><rect x="680" y="240" width="80" height="80" fill-opacity="0.25" fill="#e1d5e7" stroke="#9673a6" stroke-opacity="0.25" stroke-width="2" pointer-events="none"/><path d="M 760 280 L 831.76 280" fill="none" stroke="#9673a6" stroke-opacity="0.25" stroke-width="2" stroke-miterlimit="10" pointer-events="none"/><path d="M 837.76 280 L 829.76 284 L 831.76 280 L 829.76 276 Z" fill-opacity="0.25" fill="#9673a6" stroke="#9673a6" stroke-opacity="0.25" stroke-width="2" stroke-miterlimit="10" pointer-events="none"/><rect x="650" y="230" width="280" height="120" rx="18" ry="18" fill="none" stroke="#b85450" stroke-width="2" pointer-events="none"/><rect x="670" y="250" width="80" height="80" fill="#e1d5e7" stroke="#9673a6" stroke-width="2" pointer-events="none"/><g fill="#000000" font-family="Roboto" pointer-events="none" text-anchor="middle" font-size="32px"><text x="709.5" y="303.5">A</text></g><rect x="830" y="250" width="80" height="80" fill="#e1d5e7" stroke="#9673a6" stroke-width="2" pointer-events="none"/><g fill="#000000" font-family="Roboto" pointer-events="none" text-anchor="middle" font-size="32px"><text x="869.5" y="303.5">B</text></g><path d="M 750 290 L 821.76 290" fill="none" stroke="#9673a6" stroke-width="2" stroke-miterlimit="10" pointer-events="none"/><path d="M 827.76 290 L 819.76 294 L 821.76 290 L 819.76 286 Z" fill="#9673a6" stroke="#9673a6" stroke-width="2" stroke-miterlimit="10" pointer-events="none"/><rect x="765" y="220" width="50" height="20" rx="10" ry="10" fill="#f8cecc" stroke="#b85450" stroke-width="2" pointer-events="none"/><g fill="#660000" font-family="Roboto" font-weight="bold" pointer-events="none" text-anchor="middle" font-size="16px"><text x="789.5" y="235.5">g4</text></g><rect x="170" y="50" width="440" height="300" rx="24" ry="24" fill="none" stroke="#b85450" stroke-width="2" pointer-events="none"/><rect x="190" y="150" width="80" height="80" fill="#fff2cc" stroke="#d6b656" stroke-width="2" pointer-events="none"/><g fill="#000000" font-family="Roboto" pointer-events="none" text-anchor="middle" font-size="32px"><text x="229.5" y="203.5">D</text></g><rect x="350" y="70" width="80" height="80" fill="#fff2cc" stroke="#d6b656" stroke-width="2" pointer-events="none"/><g fill="#000000" font-family="Roboto" pointer-events="none" text-anchor="middle" font-size="32px"><text x="389.5" y="123.5">E</text></g><path d="M 270 190 L 290 190 Q 310 190 310 170 L 310 130 Q 310 110 325.88 110 L 341.76 110" fill="none" stroke="#b85450" stroke-width="2" stroke-miterlimit="10" pointer-events="none"/><path d="M 347.76 110 L 339.76 114 L 341.76 110 L 339.76 106 Z" fill="#b85450" stroke="#b85450" stroke-width="2" stroke-miterlimit="10" pointer-events="none"/><rect x="365" y="40" width="50" height="20" rx="10" ry="10" fill="#f8cecc" stroke="#b85450" stroke-width="2" pointer-events="none"/><g fill="#660000" font-family="Roboto" font-weight="bold" pointer-events="none" text-anchor="middle" font-size="16px"><text x="389.5" y="55.5">g1</text></g><rect x="510" y="70" width="80" height="80" fill="#fff2cc" stroke="#d6b656" stroke-width="2" pointer-events="none"/><g fill="#000000" font-family="Roboto" pointer-events="none" text-anchor="middle" font-size="32px"><text x="549.5" y="123.5">F</text></g><path d="M 430 110 L 501.76 110" fill="none" stroke="#b85450" stroke-width="2" stroke-miterlimit="10" pointer-events="none"/><path d="M 507.76 110 L 499.76 114 L 501.76 110 L 499.76 106 Z" fill="#b85450" stroke="#b85450" stroke-width="2" stroke-miterlimit="10" pointer-events="none"/><path d="M 430 290 L 661.76 290" fill="none" stroke="#9673a6" stroke-width="2" stroke-miterlimit="10" pointer-events="none"/><path d="M 667.76 290 L 659.76 294 L 661.76 290 L 659.76 286 Z" fill="#9673a6" stroke="#9673a6" stroke-width="2" stroke-miterlimit="10" pointer-events="none"/><rect x="350" y="250" width="80" height="80" fill="#e1d5e7" stroke="#9673a6" stroke-width="2" pointer-events="none"/><g fill="#000000" font-family="Roboto" pointer-events="none" text-anchor="middle" font-size="32px"><text x="389.5" y="303.5">F</text></g><path d="M 270 190 L 290 190 Q 310 190 310 210 L 310 270 Q 310 290 325.88 290 L 341.76 290" fill="none" stroke="#b85450" stroke-width="2" stroke-miterlimit="10" pointer-events="none"/><path d="M 347.76 290 L 339.76 294 L 341.76 290 L 339.76 286 Z" fill="#b85450" stroke="#b85450" stroke-width="2" stroke-miterlimit="10" pointer-events="none"/><rect x="365" y="240" width="50" height="20" rx="10" ry="10" fill="#e1d5e7" stroke="#9673a6" stroke-width="2" pointer-events="none"/><g fill="#000000" font-family="Roboto" font-weight="bold" pointer-events="none" text-anchor="middle" font-size="16px"><text x="389.5" y="255.5">AGG</text></g><rect x="650" y="50" width="120" height="120" rx="18" ry="18" fill="none" stroke="#b85450" stroke-width="2" pointer-events="none"/><rect x="670" y="70" width="80" height="80" fill="#fff2cc" stroke="#d6b656" stroke-width="2" pointer-events="none"/><g fill="#000000" font-family="Roboto" pointer-events="none" text-anchor="middle" font-size="32px"><text x="709.5" y="123.5">C</text></g><path d="M 590 110 L 661.76 110" fill="none" stroke="#b85450" stroke-width="2" stroke-miterlimit="10" pointer-events="none"/><path d="M 667.76 110 L 659.76 114 L 661.76 110 L 659.76 106 Z" fill="#b85450" stroke="#b85450" stroke-width="2" stroke-miterlimit="10" pointer-events="none"/><rect x="685" y="40" width="50" height="20" rx="10" ry="10" fill="#f8cecc" stroke="#b85450" stroke-width="2" pointer-events="none"/><g fill="#660000" font-family="Roboto" font-weight="bold" pointer-events="none" text-anchor="middle" font-size="16px"><text x="709.5" y="55.5">g2</text></g></g></svg>