<?xml version="1.0" encoding="UTF-8"?>
<!DOCTYPE svg PUBLIC "-//W3C//DTD SVG 1.1//EN" "http://www.w3.org/Graphics/SVG/1.1/DTD/svg11.dtd">
<svg xmlns="http://www.w3.org/2000/svg" xmlns:xlink="http://www.w3.org/1999/xlink" version="1.1" width="1142px" height="402px" viewBox="-0.5 -0.5 1142 402"><defs><style type="text/css">@import url(https://fonts.googleapis.com/css?family=Roboto);&#xa;</style></defs><g><rect x="10" y="10" width="1120" height="380" fill-opacity="0" fill="#000000" stroke="none" pointer-events="none"/><rect x="350" y="65" width="440" height="280" rx="22.4" ry="22.4" fill="none" stroke="#b85450" stroke-width="2" pointer-events="none"/><rect x="190" y="225" width="120" height="120" rx="18" ry="18" fill="none" stroke="#b85450" stroke-width="2" pointer-events="none"/><rect x="30" y="65" width="280" height="120" rx="18" ry="18" fill="none" stroke="#b85450" stroke-width="2" pointer-events="none"/><rect x="50" y="85" width="80" height="80" fill="#fff2cc" stroke="#d6b656" stroke-width="2" pointer-events="none"/><g fill="#000000" font-family="Roboto" pointer-events="none" text-anchor="middle" font-size="32px"><text x="89.5" y="138.5">A</text></g><rect x="210" y="85" width="80" height="80" fill="#fff2cc" stroke="#d6b656" stroke-width="2" pointer-events="none"/><g fill="#000000" font-family="Roboto" pointer-events="none" text-anchor="middle" font-size="32px"><text x="249.5" y="138.5">B</text></g><path d="M 130 125 L 201.76 125" fill="none" stroke="#b85450" stroke-width="2" stroke-miterlimit="10" pointer-events="none"/><path d="M 207.76 125 L 199.76 129 L 201.76 125 L 199.76 121 Z" fill="#b85450" stroke="#b85450" stroke-width="2" stroke-miterlimit="10" pointer-events="none"/><rect x="210" y="245" width="80" height="80" fill="#fff2cc" stroke="#d6b656" stroke-width="2" pointer-events="none"/><g fill="#000000" font-family="Roboto" pointer-events="none" text-anchor="middle" font-size="32px"><text x="249.5" y="298.5">C</text></g><rect x="370" y="165" width="80" height="80" fill="#fff2cc" stroke="#d6b656" stroke-width="2" pointer-events="none"/><g fill="#000000" font-family="Roboto" pointer-events="none" text-anchor="middle" font-size="32px"><text x="409.5" y="218.5">D</text></g><path d="M 290 125 L 310 125 Q 330 125 330 145 L 330 165 Q 330 185 345.88 185 L 361.76 185" fill="none" stroke="#b85450" stroke-width="2" stroke-miterlimit="10" pointer-events="none"/><path d="M 367.76 185 L 359.76 189 L 361.76 185 L 359.76 181 Z" fill="#b85450" stroke="#b85450" stroke-width="2" stroke-miterlimit="10" pointer-events="none"/><path d="M 290 285 L 310 285 Q 330 285 330 265 L 330 245 Q 330 225 345.88 225 L 361.76 225" fill="none" stroke="#b85450" stroke-width="2" stroke-miterlimit="10" pointer-events="none"/><path d="M 367.76 225 L 359.76 229 L 361.76 225 L 359.76 221 Z" fill="#b85450" stroke="#b85450" stroke-width="2" stroke-miterlimit="10" pointer-events="none"/><rect x="530" y="85" width="80" height="80" fill="#fff2cc" stroke="#d6b656" stroke-width="2" pointer-events="none"/><g fill="#000000" font-family="Roboto" pointer-events="none" text-anchor="middle" font-size="32px"><text x="569.5" y="138.5">E</text></g><path d="M 450 205 L 470 205 Q 490 205 490 185 L 490 145 Q 490 125 505.88 125 L 521.76 125" fill="none" stroke="#b85450" stroke-width="2" stroke-miterlimit="10" pointer-events="none"/><path d="M 527.76 125 L 519.76 129 L 521.76 125 L 519.76 121 Z" fill="#b85450" stroke="#b85450" stroke-width="2" stroke-miterlimit="10" pointer-events="none"/><rect x="145" y="55" width="50" height="20" rx="10" ry="10" fill="#f8cecc" stroke="#b85450" stroke-width="2" pointer-events="none"/><g fill="#660000" font-family="Roboto" font-weight="bold" pointer-events="none" text-anchor="middle" font-size="16px"><text x="169.5" y="70.5">g1</text></g><rect x="225" y="215" width="50" height="20" rx="10" ry="10" fill="#f8cecc" stroke="#b85450" stroke-width="2" pointer-events="none"/><g fill="#660000" font-family="Roboto" font-weight="bold" pointer-events="none" text-anchor="middle" font-size="16px"><text x="249.5" y="230.5">g2</text></g><rect x="545" y="55" width="50" height="20" rx="10" ry="10" fill="#f8cecc" stroke="#b85450" stroke-width="2" pointer-events="none"/><g fill="#660000" font-family="Roboto" font-weight="bold" pointer-events="none" text-anchor="middle" font-size="16px"><text x="569.5" y="70.5">g3</text></g><rect x="690" y="85" width="80" height="80" fill="#fff2cc" stroke="#d6b656" stroke-width="2" pointer-events="none"/><g fill="#000000" font-family="Roboto" pointer-events="none" text-anchor="middle" font-size="32px"><text x="729.5" y="138.5">F</text></g><path d="M 610 125 L 681.76 125" fill="none" stroke="#b85450" stroke-width="2" stroke-miterlimit="10" pointer-events="none"/><path d="M 687.76 125 L 679.76 129 L 681.76 125 L 679.76 121 Z" fill="#b85450" stroke="#b85450" stroke-width="2" stroke-miterlimit="10" pointer-events="none"/><rect x="530" y="245" width="80" height="80" fill="#e1d5e7" stroke="#9673a6" stroke-width="2" pointer-events="none"/><g fill="#000000" font-family="Roboto" pointer-events="none" text-anchor="middle" font-size="32px"><text x="569.5" y="298.5">F</text></g><path d="M 450 205 L 470 205 Q 490 205 490 225 L 490 265 Q 490 285 505.88 285 L 521.76 285" fill="none" stroke="#b85450" stroke-width="2" stroke-miterlimit="10" pointer-events="none"/><path d="M 527.76 285 L 519.76 289 L 521.76 285 L 519.76 281 Z" fill="#b85450" stroke="#b85450" stroke-width="2" stroke-miterlimit="10" pointer-events="none"/><rect x="545" y="235" width="50" height="20" rx="10" ry="10" fill="#e1d5e7" stroke="#9673a6" stroke-width="2" pointer-events="none"/><g fill="#000000" font-family="Roboto" font-weight="bold" pointer-events="none" text-anchor="middle" font-size="16px"><text x="569.5" y="250.5">AGG</text></g><rect x="830" y="225" width="280" height="120" rx="18" ry="18" fill="none" stroke="#b85450" stroke-width="2" pointer-events="none"/><rect x="850" y="245" width="80" height="80" fill="#e1d5e7" stroke="#9673a6" stroke-width="2" pointer-events="none"/><g fill="#000000" font-family="Roboto" pointer-events="none" text-anchor="middle" font-size="32px"><text x="889.5" y="298.5">G</text></g><path d="M 610 285 L 841.76 285" fill="none" stroke="#9673a6" stroke-width="2" stroke-miterlimit="10" pointer-events="none"/><path d="M 847.76 285 L 839.76 289 L 841.76 285 L 839.76 281 Z" fill="#9673a6" stroke="#9673a6" stroke-width="2" stroke-miterlimit="10" pointer-events="none"/><rect x="1010" y="245" width="80" height="80" fill="#e1d5e7" stroke="#9673a6" stroke-width="2" pointer-events="none"/><g fill="#000000" font-family="Roboto" pointer-events="none" text-anchor="middle" font-size="32px"><text x="1049.5" y="298.5">H</text></g><path d="M 930 285 L 1001.76 285" fill="none" stroke="#9673a6" stroke-width="2" stroke-miterlimit="10" pointer-events="none"/><path d="M 1007.76 285 L 999.76 289 L 1001.76 285 L 999.76 281 Z" fill="#9673a6" stroke="#9673a6" stroke-width="2" stroke-miterlimit="10" pointer-events="none"/><rect x="945" y="215" width="50" height="20" rx="10" ry="10" fill="#f8cecc" stroke="#b85450" stroke-width="2" pointer-events="none"/><g fill="#660000" font-family="Roboto" font-weight="bold" pointer-events="none" text-anchor="middle" font-size="16px"><text x="969.5" y="230.5">g4</text></g></g></svg>