<?xml version="1.0" encoding="UTF-8"?>
<!DOCTYPE svg PUBLIC "-//W3C//DTD SVG 1.1//EN" "http://www.w3.org/Graphics/SVG/1.1/DTD/svg11.dtd">
<svg xmlns="http://www.w3.org/2000/svg" xmlns:xlink="http://www.w3.org/1999/xlink" version="1.1" width="1142px" height="402px" viewBox="-0.5 -0.5 1142 402"><defs><style type="text/css">@import url(https://fonts.googleapis.com/css?family=Roboto);&#xa;</style></defs><g><rect x="10" y="10" width="1120" height="380" fill-opacity="0" fill="#000000" stroke="none" pointer-events="none"/><rect x="290" y="80" width="80" height="80" fill="#fff2cc" stroke="#d6b656" stroke-width="2" pointer-events="none"/><g fill="#000000" font-family="Roboto" pointer-events="none" text-anchor="middle" font-size="32px"><text x="329.5" y="133.5">A</text></g><rect x="290" y="240" width="80" height="80" fill="#fff2cc" stroke="#d6b656" stroke-width="2" pointer-events="none"/><g fill="#000000" font-family="Roboto" pointer-events="none" text-anchor="middle" font-size="32px"><text x="329.5" y="293.5">B</text></g><rect x="450" y="160" width="80" height="80" fill="#fff2cc" stroke="#d6b656" stroke-width="2" pointer-events="none"/><g fill="#000000" font-family="Roboto" pointer-events="none" text-anchor="middle" font-size="32px"><text x="489.5" y="213.5">C</text></g><path d="M 370 120 L 390 120 Q 410 120 410 140 L 410 160 Q 410 180 425.88 180 L 441.76 180" fill="none" stroke="#b85450" stroke-width="2" stroke-miterlimit="10" pointer-events="none"/><path d="M 447.76 180 L 439.76 184 L 441.76 180 L 439.76 176 Z" fill="#b85450" stroke="#b85450" stroke-width="2" stroke-miterlimit="10" pointer-events="none"/><path d="M 370 280 L 390 280 Q 410 280 410 260 L 410 240 Q 410 220 425.88 220 L 441.76 220" fill="none" stroke="#b85450" stroke-width="2" stroke-miterlimit="10" pointer-events="none"/><path d="M 447.76 220 L 439.76 224 L 441.76 220 L 439.76 216 Z" fill="#b85450" stroke="#b85450" stroke-width="2" stroke-miterlimit="10" pointer-events="none"/><rect x="610" y="240" width="80" height="80" fill="#fff2cc" stroke="#d6b656" stroke-width="2" pointer-events="none"/><g fill="#000000" font-family="Roboto" pointer-events="none" text-anchor="middle" font-size="32px"><text x="649.5" y="293.5">D</text></g><path d="M 530 200 L 550 200 Q 570 200 570 220 L 570 260 Q 570 280 585.88 280 L 601.76 280" fill="none" stroke="#b85450" stroke-width="2" stroke-miterlimit="10" pointer-events="none"/><path d="M 607.76 280 L 599.76 284 L 601.76 280 L 599.76 276 Z" fill="#b85450" stroke="#b85450" stroke-width="2" stroke-miterlimit="10" pointer-events="none"/><rect x="770" y="240" width="80" height="80" fill="#fff2cc" stroke="#d6b656" stroke-width="2" pointer-events="none"/><g fill="#000000" font-family="Roboto" pointer-events="none" text-anchor="middle" font-size="32px"><text x="809.5" y="293.5">E</text></g><path d="M 690 280 L 761.76 280" fill="none" stroke="#b85450" stroke-width="2" stroke-miterlimit="10" pointer-events="none"/><path d="M 767.76 280 L 759.76 284 L 761.76 280 L 759.76 276 Z" fill="#b85450" stroke="#b85450" stroke-width="2" stroke-miterlimit="10" pointer-events="none"/><rect x="610" y="80" width="80" height="80" fill="#e1d5e7" stroke="#9673a6" stroke-width="2" pointer-events="none"/><g fill="#000000" font-family="Roboto" pointer-events="none" text-anchor="middle" font-size="32px"><text x="649.5" y="133.5">F</text></g><path d="M 530 200 L 550 200 Q 570 200 570 180 L 570 140 Q 570 120 585.88 120 L 601.76 120" fill="none" stroke="#b85450" stroke-width="2" stroke-miterlimit="10" pointer-events="none"/><path d="M 607.76 120 L 599.76 124 L 601.76 120 L 599.76 116 Z" fill="#b85450" stroke="#b85450" stroke-width="2" stroke-miterlimit="10" pointer-events="none"/><rect x="770" y="80" width="80" height="80" fill="#e1d5e7" stroke="#9673a6" stroke-width="2" pointer-events="none"/><g fill="#000000" font-family="Roboto" pointer-events="none" text-anchor="middle" font-size="32px"><text x="809.5" y="133.5">G</text></g><path d="M 690 120 L 761.76 120" fill="none" stroke="#9673a6" stroke-width="2" stroke-miterlimit="10" pointer-events="none"/><path d="M 767.76 120 L 759.76 124 L 761.76 120 L 759.76 116 Z" fill="#9673a6" stroke="#9673a6" stroke-width="2" stroke-miterlimit="10" pointer-events="none"/><rect x="625" y="70" width="50" height="20" rx="10" ry="10" fill="#e1d5e7" stroke="#9673a6" stroke-width="2" pointer-events="none"/><g fill="#000000" font-family="Roboto" font-weight="bold" pointer-events="none" text-anchor="middle" font-size="16px"><text x="649.5" y="85.5">AGG</text></g></g></svg>