<?xml version="1.0" encoding="UTF-8"?>
<!DOCTYPE svg PUBLIC "-//W3C//DTD SVG 1.1//EN" "http://www.w3.org/Graphics/SVG/1.1/DTD/svg11.dtd">
<svg xmlns="http://www.w3.org/2000/svg" xmlns:xlink="http://www.w3.org/1999/xlink" version="1.1" width="772px" height="802px" viewBox="-0.5 -0.5 772 802"><defs><style type="text/css">@import url(https://fonts.googleapis.com/css?family=Roboto);&#xa;</style></defs><g><rect x="11" y="11" width="750" height="250" fill="#f7f7f7" stroke="#ababab" stroke-width="2" pointer-events="all"/><rect x="11" y="541" width="750" height="250" fill="#f7f7f7" stroke="#ababab" stroke-width="2" pointer-events="all"/><rect x="11" y="276" width="750" height="250" fill="#f7f7f7" stroke="#ababab" stroke-width="2" pointer-events="all"/><rect x="102" y="99" width="80" height="80" fill="#fff2cc" stroke="#d6b656" stroke-width="2" pointer-events="all"/><path d="M 61 139 L 90.76 139" fill="none" stroke="#000000" stroke-width="2" stroke-miterlimit="10" pointer-events="stroke"/><path d="M 99.76 139 L 87.76 145 L 90.76 139 L 87.76 133 Z" fill="#000000" stroke="#000000" stroke-width="2" stroke-miterlimit="10" pointer-events="all"/><rect x="608" y="29" width="80" height="80" fill="#e1d5e7" stroke="#9673a6" stroke-width="2" pointer-events="all"/><rect x="262" y="99" width="80" height="80" fill="#fff2cc" stroke="#d6b656" stroke-width="2" pointer-events="all"/><path d="M 528 68 L 596.76 68" fill="none" stroke="#000000" stroke-width="2" stroke-miterlimit="10" pointer-events="stroke"/><path d="M 605.76 68 L 593.76 74 L 596.76 68 L 593.76 62 Z" fill="#000000" stroke="#000000" stroke-width="2" stroke-miterlimit="10" pointer-events="all"/><rect x="448" y="29" width="80" height="80" fill="#e1d5e7" stroke="#9673a6" stroke-width="6" pointer-events="all"/><path d="M 688 68 L 709.76 68" fill="none" stroke="#000000" stroke-width="2" stroke-miterlimit="10" pointer-events="stroke"/><path d="M 718.76 68 L 706.76 74 L 709.76 68 L 706.76 62 Z" fill="#000000" stroke="#000000" stroke-width="2" stroke-miterlimit="10" pointer-events="all"/><path d="M 368 139 L 398 139 Q 408 139 408 129 L 408 79 Q 408 69 418 69 L 436.76 69" fill="none" stroke="#000000" stroke-width="2" stroke-miterlimit="10" pointer-events="stroke"/><path d="M 445.76 69 L 433.76 75 L 436.76 69 L 433.76 63 Z" fill="#000000" stroke="#000000" stroke-width="2" stroke-miterlimit="10" pointer-events="all"/><path d="M 342 139 L 398 139 Q 408 139 408 149 L 408 195 Q 408 205 418 204.87 L 436.47 204.64" fill="none" stroke="#000000" stroke-width="2" stroke-miterlimit="10" pointer-events="stroke"/><path d="M 445.47 204.53 L 433.55 210.68 L 436.47 204.64 L 433.4 198.68 Z" fill="#000000" stroke="#000000" stroke-width="2" stroke-miterlimit="10" pointer-events="all"/><path d="M 182 138.5 L 250.76 138.5" fill="none" stroke="#000000" stroke-width="2" stroke-miterlimit="10" pointer-events="stroke"/><path d="M 259.76 138.5 L 247.76 144.5 L 250.76 138.5 L 247.76 132.5 Z" fill="#000000" stroke="#000000" stroke-width="2" stroke-miterlimit="10" pointer-events="all"/><rect x="447.71" y="164.5" width="80" height="80" fill="#fff2cc" stroke="#d6b656" stroke-width="2" pointer-events="all"/><ellipse cx="36" cy="139" rx="15" ry="15" fill="#dae8fc" stroke="#6c8ebf" stroke-width="2" pointer-events="all"/><ellipse cx="220" cy="114" rx="15" ry="15" fill="#ffc891" stroke="#bd8653" stroke-width="2" pointer-events="all"/><path d="M 374.5 96.5 L 391 114 L 374.5 131.5 L 358 114 Z" fill="#ffc891" stroke="#bd8653" stroke-width="2" stroke-miterlimit="10" pointer-events="all"/><path d="M 591 184.5 L 601 184.5 L 621 204.5 L 601 224.5 L 591 224.5 L 571 204.5 Z" fill="#ffc891" stroke="#bd8653" stroke-width="2" stroke-miterlimit="10" pointer-events="all"/><path d="M 488 51.5 L 504.5 69 L 488 86.5 L 471.5 69 Z" fill="#ffc891" stroke="#bd8653" stroke-width="2" stroke-miterlimit="10" pointer-events="all"/><rect x="458" y="111" width="60" height="30" fill="none" stroke="none" pointer-events="all"/><g fill="#765A82" font-family="Roboto" font-weight="bold" text-anchor="middle" font-size="20px"><text x="487.5" y="134.5">(Agg)</text></g><rect x="105.5" y="366" width="80" height="80" fill="#fff2cc" stroke="#d6b656" stroke-width="2" pointer-events="all"/><path d="M 64.5 406 L 94.26 406" fill="none" stroke="#000000" stroke-width="2" stroke-miterlimit="10" pointer-events="stroke"/><path d="M 103.26 406 L 91.26 412 L 94.26 406 L 91.26 400 Z" fill="#000000" stroke="#000000" stroke-width="2" stroke-miterlimit="10" pointer-events="all"/><rect x="611.5" y="296" width="80" height="80" fill="#e1d5e7" stroke="#9673a6" stroke-width="2" pointer-events="all"/><rect x="265.5" y="366" width="80" height="80" fill="#fff2cc" stroke="#d6b656" stroke-width="2" pointer-events="all"/><path d="M 531.5 335 L 600.26 335" fill="none" stroke="#000000" stroke-width="2" stroke-miterlimit="10" pointer-events="stroke"/><path d="M 609.26 335 L 597.26 341 L 600.26 335 L 597.26 329 Z" fill="#000000" stroke="#000000" stroke-width="2" stroke-miterlimit="10" pointer-events="all"/><rect x="451.5" y="296" width="80" height="80" fill="#e1d5e7" stroke="#9673a6" stroke-width="6" pointer-events="all"/><path d="M 691.5 335 L 713.26 335" fill="none" stroke="#000000" stroke-width="2" stroke-miterlimit="10" pointer-events="stroke"/><path d="M 722.26 335 L 710.26 341 L 713.26 335 L 710.26 329 Z" fill="#000000" stroke="#000000" stroke-width="2" stroke-miterlimit="10" pointer-events="all"/><path d="M 371.5 406 L 401.5 406 Q 411.5 406 411.5 396 L 411.5 346 Q 411.5 336 421.5 336 L 440.26 336" fill="none" stroke="#000000" stroke-width="2" stroke-miterlimit="10" pointer-events="stroke"/><path d="M 449.26 336 L 437.26 342 L 440.26 336 L 437.26 330 Z" fill="#000000" stroke="#000000" stroke-width="2" stroke-miterlimit="10" pointer-events="all"/><path d="M 345.5 406 L 401.5 406 Q 411.5 406 411.5 416 L 411.5 460 Q 411.5 470 421.49 470.37 L 440.27 471.08" fill="none" stroke="#000000" stroke-width="2" stroke-miterlimit="10" pointer-events="stroke"/><path d="M 449.27 471.42 L 437.05 476.96 L 440.27 471.08 L 437.5 464.97 Z" fill="#000000" stroke="#000000" stroke-width="2" stroke-miterlimit="10" pointer-events="all"/><path d="M 185.5 405.5 L 254.26 405.5" fill="none" stroke="#000000" stroke-width="2" stroke-miterlimit="10" pointer-events="stroke"/><path d="M 263.26 405.5 L 251.26 411.5 L 254.26 405.5 L 251.26 399.5 Z" fill="#000000" stroke="#000000" stroke-width="2" stroke-miterlimit="10" pointer-events="all"/><rect x="451.5" y="431.5" width="80" height="80" fill="#fff2cc" stroke="#d6b656" stroke-width="2" pointer-events="all"/><ellipse cx="39.5" cy="406" rx="15" ry="15" fill="#d5e8d4" stroke="#82b366" stroke-width="2" pointer-events="all"/><ellipse cx="223.5" cy="381" rx="15" ry="15" fill="#f8cecc" stroke="#b85450" stroke-width="2" pointer-events="all"/><path d="M 378 363.5 L 394.5 381 L 378 398.5 L 361.5 381 Z" fill="#f8cecc" stroke="#b85450" stroke-width="2" stroke-miterlimit="10" pointer-events="all"/><path d="M 594.5 449 L 604.5 449 L 624.5 469 L 604.5 489 L 594.5 489 L 574.5 469 Z" fill="#f8cecc" stroke="#b85450" stroke-width="2" stroke-miterlimit="10" pointer-events="all"/><path d="M 500.5 306 L 517 323.5 L 500.5 341 L 484 323.5 Z" fill="#ffc891" stroke="#bd8653" stroke-width="2" stroke-miterlimit="10" pointer-events="all"/><rect x="461.5" y="378" width="60" height="30" fill="none" stroke="none" pointer-events="all"/><g fill="#765A82" font-family="Roboto" font-weight="bold" text-anchor="middle" font-size="20px"><text x="491" y="401.5">(Agg)</text></g><path d="M 482.5 331 L 499 348.5 L 482.5 366 L 466 348.5 Z" fill="#f8cecc" stroke="#b85450" stroke-width="2" stroke-miterlimit="10" pointer-events="all"/><rect x="95.5" y="629" width="80" height="80" fill="#fff2cc" stroke="#d6b656" stroke-width="2" pointer-events="all"/><path d="M 54.5 669 L 84.26 669" fill="none" stroke="#000000" stroke-width="2" stroke-miterlimit="10" pointer-events="stroke"/><path d="M 93.26 669 L 81.26 675 L 84.26 669 L 81.26 663 Z" fill="#000000" stroke="#000000" stroke-width="2" stroke-miterlimit="10" pointer-events="all"/><rect x="601.5" y="559" width="80" height="80" fill="#e1d5e7" stroke="#9673a6" stroke-width="2" pointer-events="all"/><rect x="255.5" y="629" width="80" height="80" fill="#fff2cc" stroke="#d6b656" stroke-width="2" pointer-events="all"/><path d="M 521.5 598 L 590.26 598" fill="none" stroke="#000000" stroke-width="2" stroke-miterlimit="10" pointer-events="stroke"/><path d="M 599.26 598 L 587.26 604 L 590.26 598 L 587.26 592 Z" fill="#000000" stroke="#000000" stroke-width="2" stroke-miterlimit="10" pointer-events="all"/><rect x="441.5" y="559" width="80" height="80" fill="#e1d5e7" stroke="#9673a6" stroke-width="6" pointer-events="all"/><path d="M 681.5 598 L 703.26 598" fill="none" stroke="#000000" stroke-width="2" stroke-miterlimit="10" pointer-events="stroke"/><path d="M 712.26 598 L 700.26 604 L 703.26 598 L 700.26 592 Z" fill="#000000" stroke="#000000" stroke-width="2" stroke-miterlimit="10" pointer-events="all"/><path d="M 361.5 669 L 391.5 669 Q 401.5 669 401.5 659 L 401.5 609 Q 401.5 599 411.5 599 L 430.26 599" fill="none" stroke="#000000" stroke-width="2" stroke-miterlimit="10" pointer-events="stroke"/><path d="M 439.26 599 L 427.26 605 L 430.26 599 L 427.26 593 Z" fill="#000000" stroke="#000000" stroke-width="2" stroke-miterlimit="10" pointer-events="all"/><path d="M 335.5 669 L 391.5 669 Q 401.5 669 401.5 679 L 401.5 723 Q 401.5 733 411.5 733.25 L 430.27 733.72" fill="none" stroke="#000000" stroke-width="2" stroke-miterlimit="10" pointer-events="stroke"/><path d="M 439.26 733.94 L 427.12 739.64 L 430.27 733.72 L 427.42 727.65 Z" fill="#000000" stroke="#000000" stroke-width="2" stroke-miterlimit="10" pointer-events="all"/><path d="M 175.5 668.5 L 244.26 668.5" fill="none" stroke="#000000" stroke-width="2" stroke-miterlimit="10" pointer-events="stroke"/><path d="M 253.26 668.5 L 241.26 674.5 L 244.26 668.5 L 241.26 662.5 Z" fill="#000000" stroke="#000000" stroke-width="2" stroke-miterlimit="10" pointer-events="all"/><rect x="441.5" y="694" width="80" height="80" fill="#fff2cc" stroke="#d6b656" stroke-width="2" pointer-events="all"/><path d="M 565.5 556 L 582 573.5 L 565.5 591 L 549 573.5 Z" fill="#ffc891" stroke="#bd8653" stroke-width="2" stroke-miterlimit="10" pointer-events="all"/><rect x="451.5" y="641" width="60" height="30" fill="none" stroke="none" pointer-events="all"/><g fill="#765A82" font-family="Roboto" font-weight="bold" text-anchor="middle" font-size="20px"><text x="481" y="664.5">(Agg)</text></g><path d="M 555.5 556 L 572 573.5 L 555.5 591 L 539 573.5 Z" fill="#f8cecc" stroke="#b85450" stroke-width="2" stroke-miterlimit="10" pointer-events="all"/><path d="M 521.5 733.66 L 543.26 733.66" fill="none" stroke="#000000" stroke-width="2" stroke-miterlimit="10" pointer-events="stroke"/><path d="M 552.26 733.66 L 540.26 739.66 L 543.26 733.66 L 540.26 727.66 Z" fill="#000000" stroke="#000000" stroke-width="2" stroke-miterlimit="10" pointer-events="all"/><path d="M 528 204.16 L 549.76 204.16" fill="none" stroke="#000000" stroke-width="2" stroke-miterlimit="10" pointer-events="stroke"/><path d="M 558.76 204.16 L 546.76 210.16 L 549.76 204.16 L 546.76 198.16 Z" fill="#000000" stroke="#000000" stroke-width="2" stroke-miterlimit="10" pointer-events="all"/><path d="M 531.5 468.66 L 553.26 468.66" fill="none" stroke="#000000" stroke-width="2" stroke-miterlimit="10" pointer-events="stroke"/><path d="M 562.26 468.66 L 550.26 474.66 L 553.26 468.66 L 550.26 462.66 Z" fill="#000000" stroke="#000000" stroke-width="2" stroke-miterlimit="10" pointer-events="all"/><path d="M 724.5 573.28 C 724.5 570.91 728.98 569 734.5 569 C 737.15 569 739.7 569.45 741.57 570.25 C 743.45 571.05 744.5 572.14 744.5 573.28 L 744.5 624.72 C 744.5 625.86 743.45 626.95 741.57 627.75 C 739.7 628.55 737.15 629 734.5 629 C 731.85 629 729.3 628.55 727.43 627.75 C 725.55 626.95 724.5 625.86 724.5 624.72 Z" fill="#d1d1d1" stroke="#666666" stroke-width="2" stroke-miterlimit="10" pointer-events="all"/><path d="M 744.5 573.28 C 744.5 574.41 743.45 575.5 741.57 576.3 C 739.7 577.1 737.15 577.55 734.5 577.55 C 731.85 577.55 729.3 577.1 727.43 576.3 C 725.55 575.5 724.5 574.41 724.5 573.28" fill="none" stroke="#666666" stroke-width="2" stroke-miterlimit="10" pointer-events="all"/><rect x="22.79" y="481.5" width="150" height="30" fill="none" stroke="none" pointer-events="all"/><g fill="#999999" font-family="Roboto" font-weight="bold" font-size="20px"><text x="24.29" y="505">pipeline.run(    )</text></g><rect x="24.5" y="214.5" width="150" height="30" fill="none" stroke="none" pointer-events="all"/><g fill="#999999" font-family="Roboto" font-weight="bold" font-size="20px"><text x="26" y="238">pipeline.run(    )</text></g><rect x="24.5" y="744" width="170" height="30" fill="none" stroke="none" pointer-events="all"/><g fill="#999999" font-family="Roboto" font-weight="bold" font-size="20px"><text x="26" y="767.5">pipeline.process()</text></g><ellipse cx="147" cy="232" rx="10" ry="10" fill="#dae8fc" stroke="#6c8ebf" stroke-width="2" pointer-events="all"/><g fill="#000000" font-family="Roboto" text-anchor="middle" font-size="12px"/><ellipse cx="145" cy="499" rx="10" ry="10" fill="#d5e8d4" stroke="#82b366" stroke-width="2" pointer-events="all"/><path d="M 141.94 151.35 C 148.82 151.35 154.16 145.81 154.16 139.07 C 154.16 133.01 149.5 126.91 141.7 126.91 C 136.11 126.91 129.77 131.5 129.77 139.15 C 129.77 145.53 134.91 151.35 141.94 151.35 Z M 138.66 164 C 136.78 163.67 134.93 163.26 133.18 162.55 L 133.28 158.44 C 131.98 157.93 130.69 157.21 129.39 156.15 L 125.74 158.3 C 124.46 156.99 123.18 155.7 121.89 154.1 L 124.26 150.58 C 123.5 149.6 122.64 148.1 122.16 146.49 L 118.02 146.46 C 117.59 144.8 117.22 142.98 117 140.77 L 120.84 139.27 C 120.76 137.88 120.97 135.93 121.24 134.55 L 117.92 132.26 C 118.48 130.49 119.13 128.74 120.07 127.05 L 124.13 127.82 C 124.81 126.52 125.84 125.3 127.03 124.12 L 125.41 120.42 C 126.74 119.15 128.34 118.05 130.06 117.04 L 133.1 119.85 C 134.57 119.13 136.26 118.65 137.49 118.51 L 138.16 114.35 C 140.1 114.02 142.14 114 143.89 114.19 L 144.84 118.07 C 146.34 118.32 147.85 118.66 149.39 119.24 L 152.15 116.25 C 153.87 117.01 155.53 118.03 157 119.13 L 155.78 122.94 C 157 124.15 158.19 125.32 158.86 126.44 L 162.88 125.42 C 163.95 127.05 164.78 128.73 165.42 130.44 L 162.27 132.99 C 162.72 134.55 162.97 136.3 163.06 137.67 L 167 138.89 C 166.92 140.79 166.77 143.14 166.39 144.51 L 162.26 145.01 C 161.86 146.61 161.26 148.01 160.56 149.3 L 163.14 152.53 C 162.35 153.82 161.02 155.53 159.61 156.92 L 155.92 155.05 C 154.99 155.96 153.66 156.94 152.15 157.62 L 152.54 161.82 C 150.95 162.59 149.17 163.2 147.24 163.67 L 145.14 160.05 C 143.87 160.3 141.87 160.44 140.47 160.23 Z" fill="none" stroke="#333333" stroke-width="4" stroke-miterlimit="10" pointer-events="all"/><path d="M 301.94 151.35 C 308.82 151.35 314.16 145.81 314.16 139.07 C 314.16 133.01 309.5 126.91 301.7 126.91 C 296.11 126.91 289.77 131.5 289.77 139.15 C 289.77 145.53 294.91 151.35 301.94 151.35 Z M 298.66 164 C 296.78 163.67 294.93 163.26 293.18 162.55 L 293.28 158.44 C 291.98 157.93 290.69 157.21 289.39 156.15 L 285.74 158.3 C 284.46 156.99 283.18 155.7 281.89 154.1 L 284.26 150.58 C 283.5 149.6 282.64 148.1 282.16 146.49 L 278.02 146.46 C 277.59 144.8 277.22 142.98 277 140.77 L 280.84 139.27 C 280.76 137.88 280.97 135.93 281.24 134.55 L 277.92 132.26 C 278.48 130.49 279.13 128.74 280.07 127.05 L 284.13 127.82 C 284.81 126.52 285.84 125.3 287.03 124.12 L 285.41 120.42 C 286.74 119.15 288.34 118.05 290.06 117.04 L 293.1 119.85 C 294.57 119.13 296.26 118.65 297.49 118.51 L 298.16 114.35 C 300.1 114.02 302.14 114 303.89 114.19 L 304.84 118.07 C 306.34 118.32 307.85 118.66 309.39 119.24 L 312.15 116.25 C 313.87 117.01 315.53 118.03 317 119.13 L 315.78 122.94 C 317 124.15 318.19 125.32 318.86 126.44 L 322.88 125.42 C 323.95 127.05 324.78 128.73 325.42 130.44 L 322.27 132.99 C 322.72 134.55 322.97 136.3 323.06 137.67 L 327 138.89 C 326.92 140.79 326.77 143.14 326.39 144.51 L 322.26 145.01 C 321.86 146.61 321.26 148.01 320.56 149.3 L 323.14 152.53 C 322.35 153.82 321.02 155.53 319.61 156.92 L 315.92 155.05 C 314.99 155.96 313.66 156.94 312.15 157.62 L 312.54 161.82 C 310.95 162.59 309.17 163.2 307.24 163.67 L 305.14 160.05 C 303.87 160.3 301.87 160.44 300.47 160.23 Z" fill="none" stroke="#333333" stroke-width="4" stroke-miterlimit="10" pointer-events="all"/><path d="M 487.94 216.35 C 494.82 216.35 500.16 210.81 500.16 204.07 C 500.16 198.01 495.5 191.91 487.7 191.91 C 482.11 191.91 475.77 196.5 475.77 204.15 C 475.77 210.53 480.91 216.35 487.94 216.35 Z M 484.66 229 C 482.78 228.67 480.93 228.26 479.18 227.55 L 479.28 223.44 C 477.98 222.93 476.69 222.21 475.39 221.15 L 471.74 223.3 C 470.46 221.99 469.18 220.7 467.89 219.1 L 470.26 215.58 C 469.5 214.6 468.64 213.1 468.16 211.49 L 464.02 211.46 C 463.59 209.8 463.22 207.98 463 205.77 L 466.84 204.27 C 466.76 202.88 466.97 200.93 467.24 199.55 L 463.92 197.26 C 464.48 195.49 465.13 193.74 466.07 192.05 L 470.13 192.82 C 470.81 191.52 471.84 190.3 473.03 189.12 L 471.41 185.42 C 472.74 184.15 474.34 183.05 476.06 182.04 L 479.1 184.85 C 480.57 184.13 482.26 183.65 483.49 183.51 L 484.16 179.35 C 486.1 179.02 488.14 179 489.89 179.19 L 490.84 183.07 C 492.34 183.32 493.85 183.66 495.39 184.24 L 498.15 181.25 C 499.87 182.01 501.53 183.03 503 184.13 L 501.78 187.94 C 503 189.15 504.19 190.32 504.86 191.44 L 508.88 190.42 C 509.95 192.05 510.78 193.73 511.42 195.44 L 508.27 197.99 C 508.72 199.55 508.97 201.3 509.06 202.67 L 513 203.89 C 512.92 205.79 512.77 208.14 512.39 209.51 L 508.26 210.01 C 507.86 211.61 507.26 213.01 506.56 214.3 L 509.14 217.53 C 508.35 218.82 507.02 220.53 505.61 221.92 L 501.92 220.05 C 500.99 220.96 499.66 221.94 498.15 222.62 L 498.54 226.82 C 496.95 227.59 495.17 228.2 493.24 228.67 L 491.14 225.05 C 489.87 225.3 487.87 225.44 486.47 225.23 Z" fill="none" stroke="#333333" stroke-width="4" stroke-miterlimit="10" pointer-events="all"/><path d="M 146.94 418.35 C 153.82 418.35 159.16 412.81 159.16 406.07 C 159.16 400.01 154.5 393.91 146.7 393.91 C 141.11 393.91 134.77 398.5 134.77 406.15 C 134.77 412.53 139.91 418.35 146.94 418.35 Z M 143.66 431 C 141.78 430.67 139.93 430.26 138.18 429.55 L 138.28 425.44 C 136.98 424.93 135.69 424.21 134.39 423.15 L 130.74 425.3 C 129.46 423.99 128.18 422.7 126.89 421.1 L 129.26 417.58 C 128.5 416.6 127.64 415.1 127.16 413.49 L 123.02 413.46 C 122.59 411.8 122.22 409.98 122 407.77 L 125.84 406.27 C 125.76 404.88 125.97 402.93 126.24 401.55 L 122.92 399.26 C 123.48 397.49 124.13 395.74 125.07 394.05 L 129.13 394.82 C 129.81 393.52 130.84 392.3 132.03 391.12 L 130.41 387.42 C 131.74 386.15 133.34 385.05 135.06 384.04 L 138.1 386.85 C 139.57 386.13 141.26 385.65 142.49 385.51 L 143.16 381.35 C 145.1 381.02 147.14 381 148.89 381.19 L 149.84 385.07 C 151.34 385.32 152.85 385.66 154.39 386.24 L 157.15 383.25 C 158.87 384.01 160.53 385.03 162 386.13 L 160.78 389.94 C 162 391.15 163.19 392.32 163.86 393.44 L 167.88 392.42 C 168.95 394.05 169.78 395.73 170.42 397.44 L 167.27 399.99 C 167.72 401.55 167.97 403.3 168.06 404.67 L 172 405.89 C 171.92 407.79 171.77 410.14 171.39 411.51 L 167.26 412.01 C 166.86 413.61 166.26 415.01 165.56 416.3 L 168.14 419.53 C 167.35 420.82 166.02 422.53 164.61 423.92 L 160.92 422.05 C 159.99 422.96 158.66 423.94 157.15 424.62 L 157.54 428.82 C 155.95 429.59 154.17 430.2 152.24 430.67 L 150.14 427.05 C 148.87 427.3 146.87 427.44 145.47 427.23 Z" fill="none" stroke="#333333" stroke-width="4" stroke-miterlimit="10" pointer-events="all"/><path d="M 305.44 418.35 C 312.32 418.35 317.66 412.81 317.66 406.07 C 317.66 400.01 313 393.91 305.2 393.91 C 299.61 393.91 293.27 398.5 293.27 406.15 C 293.27 412.53 298.41 418.35 305.44 418.35 Z M 302.16 431 C 300.28 430.67 298.43 430.26 296.68 429.55 L 296.78 425.44 C 295.48 424.93 294.19 424.21 292.89 423.15 L 289.24 425.3 C 287.96 423.99 286.68 422.7 285.39 421.1 L 287.76 417.58 C 287 416.6 286.14 415.1 285.66 413.49 L 281.52 413.46 C 281.09 411.8 280.72 409.98 280.5 407.77 L 284.34 406.27 C 284.26 404.88 284.47 402.93 284.74 401.55 L 281.42 399.26 C 281.98 397.49 282.63 395.74 283.57 394.05 L 287.63 394.82 C 288.31 393.52 289.34 392.3 290.53 391.12 L 288.91 387.42 C 290.24 386.15 291.84 385.05 293.56 384.04 L 296.6 386.85 C 298.07 386.13 299.76 385.65 300.99 385.51 L 301.66 381.35 C 303.6 381.02 305.64 381 307.39 381.19 L 308.34 385.07 C 309.84 385.32 311.35 385.66 312.89 386.24 L 315.65 383.25 C 317.37 384.01 319.03 385.03 320.5 386.13 L 319.28 389.94 C 320.5 391.15 321.69 392.32 322.36 393.44 L 326.38 392.42 C 327.45 394.05 328.28 395.73 328.92 397.44 L 325.77 399.99 C 326.22 401.55 326.47 403.3 326.56 404.67 L 330.5 405.89 C 330.42 407.79 330.27 410.14 329.89 411.51 L 325.76 412.01 C 325.36 413.61 324.76 415.01 324.06 416.3 L 326.64 419.53 C 325.85 420.82 324.52 422.53 323.11 423.92 L 319.42 422.05 C 318.49 422.96 317.16 423.94 315.65 424.62 L 316.04 428.82 C 314.45 429.59 312.67 430.2 310.74 430.67 L 308.64 427.05 C 307.37 427.3 305.37 427.44 303.97 427.23 Z" fill="none" stroke="#333333" stroke-width="4" stroke-miterlimit="10" pointer-events="all"/><path d="M 492.94 483.85 C 499.82 483.85 505.16 478.31 505.16 471.57 C 505.16 465.51 500.5 459.41 492.7 459.41 C 487.11 459.41 480.77 464 480.77 471.65 C 480.77 478.03 485.91 483.85 492.94 483.85 Z M 489.66 496.5 C 487.78 496.17 485.93 495.76 484.18 495.05 L 484.28 490.94 C 482.98 490.43 481.69 489.71 480.39 488.65 L 476.74 490.8 C 475.46 489.49 474.18 488.2 472.89 486.6 L 475.26 483.08 C 474.5 482.1 473.64 480.6 473.16 478.99 L 469.02 478.96 C 468.59 477.3 468.22 475.48 468 473.27 L 471.84 471.77 C 471.76 470.38 471.97 468.43 472.24 467.05 L 468.92 464.76 C 469.48 462.99 470.13 461.24 471.07 459.55 L 475.13 460.32 C 475.81 459.02 476.84 457.8 478.03 456.62 L 476.41 452.92 C 477.74 451.65 479.34 450.55 481.06 449.54 L 484.1 452.35 C 485.57 451.63 487.26 451.15 488.49 451.01 L 489.16 446.85 C 491.1 446.52 493.14 446.5 494.89 446.69 L 495.84 450.57 C 497.34 450.82 498.85 451.16 500.39 451.74 L 503.15 448.75 C 504.87 449.51 506.53 450.53 508 451.63 L 506.78 455.44 C 508 456.65 509.19 457.82 509.86 458.94 L 513.88 457.92 C 514.95 459.55 515.78 461.23 516.42 462.94 L 513.27 465.49 C 513.72 467.05 513.97 468.8 514.06 470.17 L 518 471.39 C 517.92 473.29 517.77 475.64 517.39 477.01 L 513.26 477.51 C 512.86 479.11 512.26 480.51 511.56 481.8 L 514.14 485.03 C 513.35 486.32 512.02 488.03 510.61 489.42 L 506.92 487.55 C 505.99 488.46 504.66 489.44 503.15 490.12 L 503.54 494.32 C 501.95 495.09 500.17 495.7 498.24 496.17 L 496.14 492.55 C 494.87 492.8 492.87 492.94 491.47 492.73 Z" fill="none" stroke="#333333" stroke-width="4" stroke-miterlimit="10" pointer-events="all"/><path d="M 641.44 611.35 C 648.32 611.35 653.66 605.81 653.66 599.07 C 653.66 593.01 649 586.91 641.2 586.91 C 635.61 586.91 629.27 591.5 629.27 599.15 C 629.27 605.53 634.41 611.35 641.44 611.35 Z M 638.16 624 C 636.28 623.67 634.43 623.26 632.68 622.55 L 632.78 618.44 C 631.48 617.93 630.19 617.21 628.89 616.15 L 625.24 618.3 C 623.96 616.99 622.68 615.7 621.39 614.1 L 623.76 610.58 C 623 609.6 622.14 608.1 621.66 606.49 L 617.52 606.46 C 617.09 604.8 616.72 602.98 616.5 600.77 L 620.34 599.27 C 620.26 597.88 620.47 595.93 620.74 594.55 L 617.42 592.26 C 617.98 590.49 618.63 588.74 619.57 587.05 L 623.63 587.82 C 624.31 586.52 625.34 585.3 626.53 584.12 L 624.91 580.42 C 626.24 579.15 627.84 578.05 629.56 577.04 L 632.6 579.85 C 634.07 579.13 635.76 578.65 636.99 578.51 L 637.66 574.35 C 639.6 574.02 641.64 574 643.39 574.19 L 644.34 578.07 C 645.84 578.32 647.35 578.66 648.89 579.24 L 651.65 576.25 C 653.37 577.01 655.03 578.03 656.5 579.13 L 655.28 582.94 C 656.5 584.15 657.69 585.32 658.36 586.44 L 662.38 585.42 C 663.45 587.05 664.28 588.73 664.92 590.44 L 661.77 592.99 C 662.22 594.55 662.47 596.3 662.56 597.67 L 666.5 598.89 C 666.42 600.79 666.27 603.14 665.89 604.51 L 661.76 605.01 C 661.36 606.61 660.76 608.01 660.06 609.3 L 662.64 612.53 C 661.85 613.82 660.52 615.53 659.11 616.92 L 655.42 615.05 C 654.49 615.96 653.16 616.94 651.65 617.62 L 652.04 621.82 C 650.45 622.59 648.67 623.2 646.74 623.67 L 644.64 620.05 C 643.37 620.3 641.37 620.44 639.97 620.23 Z" fill="none" stroke="#333333" stroke-width="4" stroke-miterlimit="10" pointer-events="all"/><path d="M 488.83 574 L 507.5 589.59 L 488.83 605.17 L 488.83 597.09 C 471.53 597.09 457.5 609.14 457.5 624 C 457.5 600.85 471.53 582.09 488.83 582.09 Z" fill="none" stroke="#333333" stroke-width="4" stroke-miterlimit="10" pointer-events="all"/><path d="M 623 44 L 637.58 44 L 648 58.8 L 658.42 44 L 673 44 L 655.29 69 L 673 94 L 658.42 94 L 648 79.2 L 637.58 94 L 623 94 L 639.67 69 Z" fill="none" stroke="#333333" stroke-opacity="0.5" stroke-width="4" stroke-miterlimit="10" pointer-events="all"/><path d="M 626.5 311 L 641.08 311 L 651.5 325.8 L 661.92 311 L 676.5 311 L 658.79 336 L 676.5 361 L 661.92 361 L 651.5 346.2 L 641.08 361 L 626.5 361 L 643.17 336 Z" fill="none" stroke="#333333" stroke-opacity="0.5" stroke-width="4" stroke-miterlimit="10" pointer-events="all"/><path d="M 270.5 645 L 285.08 645 L 295.5 659.8 L 305.92 645 L 320.5 645 L 302.79 670 L 320.5 695 L 305.92 695 L 295.5 680.2 L 285.08 695 L 270.5 695 L 287.17 670 Z" fill="none" stroke="#333333" stroke-opacity="0.5" stroke-width="4" stroke-miterlimit="10" pointer-events="all"/><path d="M 110.5 645 L 125.08 645 L 135.5 659.8 L 145.92 645 L 160.5 645 L 142.79 670 L 160.5 695 L 145.92 695 L 135.5 680.2 L 125.08 695 L 110.5 695 L 127.17 670 Z" fill="none" stroke="#333333" stroke-opacity="0.5" stroke-width="4" stroke-miterlimit="10" pointer-events="all"/><path d="M 456.5 709 L 471.08 709 L 481.5 723.8 L 491.92 709 L 506.5 709 L 488.79 734 L 506.5 759 L 491.92 759 L 481.5 744.2 L 471.08 759 L 456.5 759 L 473.17 734 Z" fill="none" stroke="#333333" stroke-opacity="0.5" stroke-width="4" stroke-miterlimit="10" pointer-events="all"/></g></svg>