<?xml version="1.0" encoding="UTF-8"?>
<!DOCTYPE svg PUBLIC "-//W3C//DTD SVG 1.1//EN" "http://www.w3.org/Graphics/SVG/1.1/DTD/svg11.dtd">
<svg xmlns="http://www.w3.org/2000/svg" xmlns:xlink="http://www.w3.org/1999/xlink" version="1.1" width="422px" height="262px" viewBox="-0.5 -0.5 422 262"><defs><style type="text/css">@import url(https://fonts.googleapis.com/css?family=Roboto);&#xa;</style></defs><g><path d="M 90 130 L 110 130 Q 130 130 130 150 L 130 190 Q 130 210 145.88 210 L 161.76 210" fill="none" stroke="#b85450" stroke-width="2" stroke-miterlimit="10" pointer-events="stroke"/><path d="M 167.76 210 L 159.76 214 L 161.76 210 L 159.76 206 Z" fill="#b85450" stroke="#b85450" stroke-width="2" stroke-miterlimit="10" pointer-events="all"/><rect x="10" y="90" width="80" height="80" fill="#fff2cc" stroke="#d6b656" stroke-width="2" pointer-events="all"/><g fill="#000000" font-family="Roboto" text-anchor="middle" font-size="32px"><text x="49.5" y="143.5">A</text></g><rect x="170" y="10" width="80" height="80" fill="#fff2cc" stroke="#d6b656" stroke-width="2" pointer-events="all"/><g fill="#000000" font-family="Roboto" text-anchor="middle" font-size="32px"><text x="209.5" y="63.5">B</text></g><path d="M 90 130 L 110 130 Q 130 130 130 110 L 130 50 Q 130 30 145.88 30 L 161.76 30" fill="none" stroke="#b85450" stroke-width="2" stroke-miterlimit="10" pointer-events="stroke"/><path d="M 167.76 30 L 159.76 34 L 161.76 30 L 159.76 26 Z" fill="#b85450" stroke="#b85450" stroke-width="2" stroke-miterlimit="10" pointer-events="all"/><rect x="330" y="10" width="80" height="80" fill="#fff2cc" stroke="#d6b656" stroke-width="2" pointer-events="all"/><g fill="#000000" font-family="Roboto" text-anchor="middle" font-size="32px"><text x="369.5" y="63.5">C</text></g><path d="M 250 50 L 321.76 50" fill="none" stroke="#b85450" stroke-width="2" stroke-miterlimit="10" pointer-events="stroke"/><path d="M 327.76 50 L 319.76 54 L 321.76 50 L 319.76 46 Z" fill="#b85450" stroke="#b85450" stroke-width="2" stroke-miterlimit="10" pointer-events="all"/><path d="M 250 210 L 321.76 210" fill="none" stroke="#9673a6" stroke-width="2" stroke-miterlimit="10" pointer-events="stroke"/><path d="M 327.76 210 L 319.76 214 L 321.76 210 L 319.76 206 Z" fill="#9673a6" stroke="#9673a6" stroke-width="2" stroke-miterlimit="10" pointer-events="all"/><rect x="170" y="170" width="80" height="80" fill="#e1d5e7" stroke="#9673a6" stroke-width="2" pointer-events="all"/><g fill="#000000" font-family="Roboto" text-anchor="middle" font-size="32px"><text x="209.5" y="223.5">D</text></g><rect x="330" y="170" width="80" height="80" fill="#e1d5e7" stroke="#9673a6" stroke-width="2" pointer-events="all"/><g fill="#000000" font-family="Roboto" text-anchor="middle" font-size="32px"><text x="369.5" y="223.5">E</text></g><rect x="185" y="160" width="50" height="20" rx="10" ry="10" fill="#e1d5e7" stroke="#9673a6" stroke-width="2" pointer-events="all"/><g fill="#000000" font-family="Roboto" font-weight="bold" text-anchor="middle" font-size="16px"><text x="209.5" y="175.5">AGG</text></g></g></svg>