<?xml version="1.0" encoding="UTF-8"?>
<!DOCTYPE svg PUBLIC "-//W3C//DTD SVG 1.1//EN" "http://www.w3.org/Graphics/SVG/1.1/DTD/svg11.dtd">
<svg xmlns="http://www.w3.org/2000/svg" xmlns:xlink="http://www.w3.org/1999/xlink" version="1.1" width="782px" height="312px" viewBox="-0.5 -0.5 782 312"><defs><style type="text/css">@import url(https://fonts.googleapis.com/css?family=Roboto);&#xa;</style></defs><g><rect x="10" y="20" width="440" height="280" rx="22.4" ry="22.4" fill="none" stroke="#b85450" stroke-width="2" pointer-events="all"/><rect x="490" y="20" width="280" height="120" rx="18" ry="18" fill="none" stroke="#b85450" stroke-width="2" pointer-events="all"/><rect x="510" y="40" width="80" height="80" fill="#fff2cc" stroke="#d6b656" stroke-width="2" pointer-events="all"/><g fill="#000000" font-family="Roboto" text-anchor="middle" font-size="32px"><text x="549.5" y="93.5">C</text></g><rect x="670" y="40" width="80" height="80" fill="#fff2cc" stroke="#d6b656" stroke-width="2" pointer-events="all"/><g fill="#000000" font-family="Roboto" text-anchor="middle" font-size="32px"><text x="709.5" y="93.5">D</text></g><path d="M 590 80 L 661.76 80" fill="none" stroke="#b85450" stroke-width="2" stroke-miterlimit="10" pointer-events="stroke"/><path d="M 667.76 80 L 659.76 84 L 661.76 80 L 659.76 76 Z" fill="#b85450" stroke="#b85450" stroke-width="2" stroke-miterlimit="10" pointer-events="all"/><rect x="30" y="120" width="80" height="80" fill="#fff2cc" stroke="#d6b656" stroke-width="2" pointer-events="all"/><g fill="#000000" font-family="Roboto" text-anchor="middle" font-size="32px"><text x="69.5" y="173.5">A</text></g><path d="M 350 80 L 501.76 80" fill="none" stroke="#b85450" stroke-width="2" stroke-miterlimit="10" pointer-events="stroke"/><path d="M 507.76 80 L 499.76 84 L 501.76 80 L 499.76 76 Z" fill="#b85450" stroke="#b85450" stroke-width="2" stroke-miterlimit="10" pointer-events="all"/><rect x="270" y="40" width="80" height="80" fill="#fff2cc" stroke="#d6b656" stroke-width="2" pointer-events="all"/><g fill="#000000" font-family="Roboto" text-anchor="middle" font-size="32px"><text x="309.5" y="93.5">B</text></g><path d="M 110 160 L 130 160 Q 150 160 150 140 L 150 100 Q 150 80 170 80 L 261.76 80" fill="none" stroke="#b85450" stroke-width="2" stroke-miterlimit="10" pointer-events="stroke"/><path d="M 267.76 80 L 259.76 84 L 261.76 80 L 259.76 76 Z" fill="#b85450" stroke="#b85450" stroke-width="2" stroke-miterlimit="10" pointer-events="all"/><rect x="177.5" y="10" width="105" height="20" rx="10" ry="10" fill="#f8cecc" stroke="#b85450" stroke-width="2" pointer-events="all"/><g fill="#660000" font-family="Roboto" font-weight="bold" text-anchor="middle" font-size="16px"><text x="229.5" y="25.5">group_1</text></g><rect x="190" y="200" width="80" height="80" fill="#e1d5e7" stroke="#9673a6" stroke-width="2" pointer-events="all"/><g fill="#000000" font-family="Roboto" text-anchor="middle" font-size="32px"><text x="229.5" y="253.5">E</text></g><path d="M 110 160 L 130 160 Q 150 160 150 180 L 150 220 Q 150 240 165.88 240 L 181.76 240" fill="none" stroke="#b85450" stroke-width="2" stroke-miterlimit="10" pointer-events="stroke"/><path d="M 187.76 240 L 179.76 244 L 181.76 240 L 179.76 236 Z" fill="#b85450" stroke="#b85450" stroke-width="2" stroke-miterlimit="10" pointer-events="all"/><rect x="205" y="190" width="50" height="20" rx="10" ry="10" fill="#e1d5e7" stroke="#9673a6" stroke-width="2" pointer-events="all"/><g fill="#000000" font-family="Roboto" font-weight="bold" text-anchor="middle" font-size="16px"><text x="229.5" y="205.5">AGG</text></g><rect x="490" y="180" width="120" height="120" rx="18" ry="18" fill="none" stroke="#b85450" stroke-width="2" pointer-events="all"/><rect x="350" y="200" width="80" height="80" fill="#e1d5e7" stroke="#9673a6" stroke-width="2" pointer-events="all"/><g fill="#000000" font-family="Roboto" text-anchor="middle" font-size="32px"><text x="389.5" y="253.5">F</text></g><path d="M 270 240 L 341.76 240" fill="none" stroke="#9673a6" stroke-width="2" stroke-miterlimit="10" pointer-events="stroke"/><path d="M 347.76 240 L 339.76 244 L 341.76 240 L 339.76 236 Z" fill="#9673a6" stroke="#9673a6" stroke-width="2" stroke-miterlimit="10" pointer-events="all"/><rect x="510" y="200" width="80" height="80" fill="#e1d5e7" stroke="#9673a6" stroke-width="2" pointer-events="all"/><g fill="#000000" font-family="Roboto" text-anchor="middle" font-size="32px"><text x="549.5" y="253.5">G</text></g><path d="M 430 240 L 501.76 240" fill="none" stroke="#9673a6" stroke-width="2" stroke-miterlimit="10" pointer-events="stroke"/><path d="M 507.76 240 L 499.76 244 L 501.76 240 L 499.76 236 Z" fill="#9673a6" stroke="#9673a6" stroke-width="2" stroke-miterlimit="10" pointer-events="all"/><rect x="497.5" y="170" width="105" height="20" rx="10" ry="10" fill="#f8cecc" stroke="#b85450" stroke-width="2" pointer-events="all"/><g fill="#660000" font-family="Roboto" font-weight="bold" text-anchor="middle" font-size="16px"><text x="549.5" y="185.5">group_3</text></g><rect x="577.5" y="10" width="105" height="20" rx="10" ry="10" fill="#f8cecc" stroke="#b85450" stroke-width="2" pointer-events="all"/><g fill="#660000" font-family="Roboto" font-weight="bold" text-anchor="middle" font-size="16px"><text x="629.5" y="25.5">group_2</text></g></g></svg>