<?xml version="1.0" encoding="UTF-8"?>
<!DOCTYPE svg PUBLIC "-//W3C//DTD SVG 1.1//EN" "http://www.w3.org/Graphics/SVG/1.1/DTD/svg11.dtd">
<svg xmlns="http://www.w3.org/2000/svg" xmlns:xlink="http://www.w3.org/1999/xlink" version="1.1" width="1655px" height="465px" viewBox="-0.5 -0.5 1655 465"><defs><style type="text/css">@import url(https://fonts.googleapis.com/css?family=Roboto);&#xa;</style></defs><g><path d="M 1106 192 L 1388 192 L 1408 232 L 1388 272 L 1106 272 L 1126 232 Z" fill="#cccccc" stroke="#666666" stroke-width="4" stroke-miterlimit="10" pointer-events="all"/><path d="M 52 192 L 252 192 L 272 232 L 252 272 L 52 272 L 72 232 Z" fill="#cccccc" stroke="#666666" stroke-width="4" stroke-miterlimit="10" pointer-events="all"/><ellipse cx="162" cy="232" rx="55" ry="55" fill="#f5f5f5" stroke="#666666" stroke-width="4" pointer-events="all"/><g fill="#333333" font-family="Roboto" font-weight="bold" text-anchor="middle" font-size="40px"><text x="161.5" y="249.5">1</text></g><path d="M 262 192 L 462 192 L 482 232 L 462 272 L 262 272 L 282 232 Z" fill="#cccccc" stroke="#666666" stroke-width="4" stroke-miterlimit="10" pointer-events="all"/><ellipse cx="372" cy="232" rx="55" ry="55" fill="#f5f5f5" stroke="#666666" stroke-width="4" pointer-events="all"/><g fill="#333333" font-family="Roboto" font-weight="bold" text-anchor="middle" font-size="40px"><text x="371.5" y="249.5">2</text></g><path d="M 473 192 L 673 192 L 693 232 L 673 272 L 473 272 L 493 232 Z" fill="#cccccc" stroke="#666666" stroke-width="4" stroke-miterlimit="10" pointer-events="all"/><ellipse cx="583" cy="232" rx="55" ry="55" fill="#f5f5f5" stroke="#666666" stroke-width="4" pointer-events="all"/><g fill="#333333" font-family="Roboto" font-weight="bold" text-anchor="middle" font-size="40px"><text x="582.5" y="249.5">3</text></g><path d="M 684 192 L 884 192 L 904 232 L 884 272 L 684 272 L 704 232 Z" fill="#cccccc" stroke="#666666" stroke-width="4" stroke-miterlimit="10" pointer-events="all"/><ellipse cx="794" cy="232" rx="55" ry="55" fill="#f5f5f5" stroke="#666666" stroke-width="4" pointer-events="all"/><g fill="#333333" font-family="Roboto" font-weight="bold" text-anchor="middle" font-size="40px"><text x="793.5" y="249.5">4</text></g><path d="M 896 192 L 1096 192 L 1116 232 L 1096 272 L 896 272 L 916 232 Z" fill="#dae8fc" stroke="#6c8ebf" stroke-width="4" stroke-miterlimit="10" pointer-events="all"/><ellipse cx="1006" cy="232" rx="55" ry="55" fill="#dae8fc" stroke="#6c8ebf" stroke-width="4" pointer-events="all"/><g fill="#000000" font-family="Roboto" font-weight="bold" text-anchor="middle" font-size="40px"><text x="1005.5" y="249.5">5</text></g><rect x="12" y="12" width="300" height="100" rx="15" ry="15" fill="#f5f5f5" stroke="#666666" stroke-width="4" pointer-events="all"/><g fill="#333333" font-family="Roboto" text-anchor="middle" font-size="32px"><text x="161.5" y="56.5">module class</text><text x="161.5" y="94.5">definition</text></g><path d="M 162 177 L 162 112" fill="none" stroke="#666666" stroke-width="4" stroke-miterlimit="10" stroke-dasharray="4 8" pointer-events="stroke"/><rect x="176.74" y="352" width="390.5" height="100" rx="15" ry="15" fill="#f5f5f5" stroke="#666666" stroke-width="4" pointer-events="all"/><g fill="#333333" font-family="Roboto" text-anchor="middle" font-size="32px"><text x="371.49" y="396.5">setting params and</text><text x="371.49" y="434.5">dependencies</text></g><path d="M 371.99 352 L 372 287" fill="none" stroke="#666666" stroke-width="4" stroke-miterlimit="10" stroke-dasharray="4 8" pointer-events="stroke"/><path d="M 583 177 L 583 112" fill="none" stroke="#666666" stroke-width="4" stroke-miterlimit="10" stroke-dasharray="4 8" pointer-events="stroke"/><rect x="453" y="12" width="260" height="100" rx="15" ry="15" fill="#f5f5f5" stroke="#666666" stroke-width="4" pointer-events="all"/><g fill="#333333" font-family="Roboto" text-anchor="middle" font-size="32px"><text x="582.5" y="56.5">building</text><text x="582.5" y="94.5">module</text></g><rect x="664" y="352" width="260" height="100" rx="15" ry="15" fill="#f5f5f5" stroke="#666666" stroke-width="4" pointer-events="all"/><g fill="#333333" font-family="Roboto" text-anchor="middle" font-size="32px"><text x="793.5" y="396.5">building</text><text x="793.5" y="434.5">pipeline</text></g><path d="M 794 352 L 794 287" fill="none" stroke="#666666" stroke-width="4" stroke-miterlimit="10" stroke-dasharray="4 8" pointer-events="stroke"/><rect x="871.18" y="12" width="269.62" height="100" rx="15" ry="15" fill="#dae8fc" stroke="#6c8ebf" stroke-width="6" pointer-events="all"/><g fill="#000000" font-family="Roboto" font-weight="bold" text-anchor="middle" font-size="32px"><text x="1005.49" y="75.5">bootstrap</text></g><rect x="1124" y="352" width="260" height="100" rx="15" ry="15" fill="#f5f5f5" stroke="#666666" stroke-width="4" pointer-events="all"/><g fill="#333333" font-family="Roboto" text-anchor="middle" font-size="32px"><text x="1253.5" y="396.5">module</text><text x="1253.5" y="434.5">runtime</text></g><path d="M 1254 352 L 1254 287" fill="none" stroke="#666666" stroke-width="4" stroke-miterlimit="10" stroke-dasharray="4 8" pointer-events="stroke"/><path d="M 1005.99 112 L 1006 177" fill="none" stroke="#6c8ebf" stroke-width="4" stroke-miterlimit="10" stroke-dasharray="4 8" pointer-events="stroke"/><ellipse cx="1254" cy="232" rx="55" ry="55" fill="#f5f5f5" stroke="#666666" stroke-width="4" pointer-events="all"/><g fill="#333333" font-family="Roboto" font-weight="bold" text-anchor="middle" font-size="40px"><text x="1253.5" y="249.5">6</text></g><path d="M 1292.42 184 L 1344 213.37 L 1292.42 242.74 L 1292.42 227.77 C 1221.5 227.77 1164 288.76 1164 364 C 1164 272.86 1221.5 198.97 1292.42 198.97 Z" fill="#f5f5f5" stroke="#666666" stroke-width="4" stroke-miterlimit="10" transform="rotate(210,1254,274)" pointer-events="all"/><path d="M 1292.42 100 L 1344 129.37 L 1292.42 158.74 L 1292.42 143.77 C 1221.5 143.77 1164 204.76 1164 280 C 1164 188.86 1221.5 114.97 1292.42 114.97 Z" fill="#f5f5f5" stroke="#666666" stroke-width="4" stroke-miterlimit="10" transform="rotate(30,1254,190)" pointer-events="all"/><path d="M 1398 192 L 1598 192 L 1618 232 L 1598 272 L 1398 272 L 1418 232 Z" fill="#f8cecc" stroke="#b85450" stroke-width="4" stroke-miterlimit="10" pointer-events="all"/><ellipse cx="1508" cy="232" rx="55" ry="55" fill="#f8cecc" stroke="#b85450" stroke-width="4" pointer-events="all"/><g fill="#000000" font-family="Roboto" font-weight="bold" text-anchor="middle" font-size="40px"><text x="1507.5" y="249.5">7</text></g><rect x="1374" y="12" width="268" height="100" rx="15" ry="15" fill="#f8cecc" stroke="#b85450" stroke-width="6" pointer-events="all"/><g fill="#000000" font-family="Roboto" font-weight="bold" text-anchor="middle" font-size="32px"><text x="1507.5" y="75.5">teardown</text></g><path d="M 1508 112 L 1507.62 177" fill="none" stroke="#b85450" stroke-width="4" stroke-miterlimit="10" stroke-dasharray="4 8" pointer-events="stroke"/></g></svg>