<?xml version="1.0" encoding="UTF-8"?>
<!DOCTYPE svg PUBLIC "-//W3C//DTD SVG 1.1//EN" "http://www.w3.org/Graphics/SVG/1.1/DTD/svg11.dtd">
<svg xmlns="http://www.w3.org/2000/svg" xmlns:xlink="http://www.w3.org/1999/xlink" version="1.1" width="302px" height="312px" viewBox="-0.5 -0.5 302 312"><defs><style type="text/css">@import url(https://fonts.googleapis.com/css?family=Roboto);&#xa;</style></defs><g><rect x="10" y="20" width="120" height="120" rx="18" ry="18" fill="none" stroke="#b85450" stroke-width="2" pointer-events="all"/><path d="M 110 80 L 130 80 Q 150 80 150 100 L 150 120 Q 150 140 165.88 140 L 181.76 140" fill="none" stroke="#b85450" stroke-width="2" stroke-miterlimit="10" pointer-events="stroke"/><path d="M 187.76 140 L 179.76 144 L 181.76 140 L 179.76 136 Z" fill="#b85450" stroke="#b85450" stroke-width="2" stroke-miterlimit="10" pointer-events="all"/><rect x="30" y="40" width="80" height="80" fill="#fff2cc" stroke="#d6b656" stroke-width="2" pointer-events="all"/><g fill="#000000" font-family="Roboto" text-anchor="middle" font-size="32px"><text x="69.5" y="93.5">A</text></g><rect x="10" y="180" width="120" height="120" rx="18" ry="18" fill="none" stroke="#b85450" stroke-width="2" pointer-events="all"/><path d="M 110 240 L 130 240 Q 150 240 150 220 L 150 200 Q 150 180 165.88 180 L 181.76 180" fill="none" stroke="#b85450" stroke-width="2" stroke-miterlimit="10" pointer-events="stroke"/><path d="M 187.76 180 L 179.76 184 L 181.76 180 L 179.76 176 Z" fill="#b85450" stroke="#b85450" stroke-width="2" stroke-miterlimit="10" pointer-events="all"/><rect x="30" y="200" width="80" height="80" fill="#fff2cc" stroke="#d6b656" stroke-width="2" pointer-events="all"/><g fill="#000000" font-family="Roboto" text-anchor="middle" font-size="32px"><text x="69.5" y="253.5">B</text></g><rect x="170" y="100" width="120" height="120" rx="18" ry="18" fill="none" stroke="#b85450" stroke-width="2" pointer-events="all"/><rect x="190" y="120" width="80" height="80" fill="#fff2cc" stroke="#d6b656" stroke-width="2" pointer-events="all"/><g fill="#000000" font-family="Roboto" text-anchor="middle" font-size="32px"><text x="229.5" y="173.5">C</text></g><rect x="30" y="10" width="80" height="20" rx="10" ry="10" fill="#f8cecc" stroke="#b85450" stroke-width="2" pointer-events="all"/><g fill="#660000" font-family="Roboto" font-weight="bold" text-anchor="middle" font-size="16px"><text x="69.5" y="25.5">g1 | GPU</text></g><rect x="205" y="90" width="50" height="20" rx="10" ry="10" fill="#f8cecc" stroke="#b85450" stroke-width="2" pointer-events="all"/><g fill="#660000" font-family="Roboto" font-weight="bold" text-anchor="middle" font-size="16px"><text x="229.5" y="105.5">g3</text></g><rect x="10" y="170" width="120" height="20" rx="10" ry="10" fill="#f8cecc" stroke="#b85450" stroke-width="2" pointer-events="all"/><g fill="#660000" font-family="Roboto" font-weight="bold" text-anchor="middle" font-size="16px"><text x="69.5" y="185.5">g2 | CPU, GPU</text></g></g></svg>