<?xml version="1.0" encoding="UTF-8"?>
<!DOCTYPE svg PUBLIC "-//W3C//DTD SVG 1.1//EN" "http://www.w3.org/Graphics/SVG/1.1/DTD/svg11.dtd">
<svg xmlns="http://www.w3.org/2000/svg" xmlns:xlink="http://www.w3.org/1999/xlink" version="1.1" width="872px" height="923px" viewBox="-0.5 -0.5 872 923"><defs><style type="text/css">@import url(https://fonts.googleapis.com/css?family=Roboto);&#xa;</style></defs><g><rect x="140" y="32" width="680" height="80" rx="12" ry="12" fill="none" stroke="#b85450" stroke-width="2" pointer-events="all"/><rect x="140" y="112" width="680" height="80" rx="16" ry="16" fill="none" stroke="#b85450" stroke-width="2" pointer-events="all"/><rect x="80" y="292" width="760" height="280" rx="14" ry="14" fill="none" stroke="#6c8ebf" stroke-width="2" pointer-events="all"/><rect x="80" y="572" width="760" height="280" rx="14" ry="14" fill="none" stroke="#6c8ebf" stroke-width="2" pointer-events="all"/><path d="M 160 872 L 160 12" fill="none" stroke="#999999" stroke-width="4" stroke-miterlimit="10" stroke-dasharray="4 4" pointer-events="stroke"/><path d="M 320 872 L 320 12" fill="none" stroke="#999999" stroke-width="4" stroke-miterlimit="10" stroke-dasharray="4 4" pointer-events="stroke"/><path d="M 480 872 L 480 12" fill="none" stroke="#999999" stroke-width="4" stroke-miterlimit="10" stroke-dasharray="4 4" pointer-events="stroke"/><path d="M 640 872 L 640 12" fill="none" stroke="#999999" stroke-width="4" stroke-miterlimit="10" stroke-dasharray="4 4" pointer-events="stroke"/><path d="M 800 872 L 800 12" fill="none" stroke="#999999" stroke-width="4" stroke-miterlimit="10" stroke-dasharray="4 4" pointer-events="stroke"/><rect x="140" y="192" width="680" height="80" rx="12" ry="12" fill="none" stroke="#b85450" stroke-width="2" pointer-events="all"/><rect x="80" y="12" width="760" height="280" rx="14" ry="14" fill="none" stroke="#6c8ebf" stroke-width="2" pointer-events="all"/><rect x="100" y="872" width="120" height="40" rx="6" ry="6" fill="none" stroke="none" pointer-events="all"/><g fill="#999999" font-family="Roboto" font-weight="bold" text-anchor="middle" font-size="24px"><text x="159.5" y="901.5">0</text></g><rect x="340" y="132" width="120" height="40" rx="6" ry="6" fill="#f8cecc" stroke="#b85450" stroke-width="2" pointer-events="all"/><g fill="#990000" font-family="Roboto" text-anchor="middle" font-size="28px"><text x="399.5" y="163.5">B</text></g><rect x="180" y="132" width="120" height="40" rx="6" ry="6" fill="#fff2cc" stroke="#d6b656" stroke-width="2" pointer-events="all"/><g fill="#000000" font-family="Roboto" text-anchor="middle" font-size="28px"><text x="239.5" y="163.5">B</text></g><rect x="340" y="212" width="120" height="40" rx="6" ry="6" fill="#fff2cc" stroke="#d6b656" stroke-width="2" pointer-events="all"/><g fill="#000000" font-family="Roboto" text-anchor="middle" font-size="28px"><text x="399.5" y="243.5">C</text></g><rect x="100" y="222" width="50" height="20" rx="10" ry="10" fill="#f8cecc" stroke="#b85450" stroke-width="2" pointer-events="all"/><g fill="#660000" font-family="Roboto" font-weight="bold" text-anchor="middle" font-size="16px"><text x="124.5" y="237.5">g3</text></g><rect x="10" y="32" width="90" height="40" rx="20" ry="20" fill="#dae8fc" stroke="#6c8ebf" stroke-width="2" pointer-events="all"/><g fill="#003366" font-family="Roboto" font-weight="bold" text-anchor="middle" font-size="24px"><text x="54.5" y="61.5">Job 1</text></g><rect x="190" y="42" width="120" height="40" rx="6" ry="6" fill="#f8cecc" stroke="#b85450" stroke-width="2" pointer-events="all"/><g fill="#990000" font-family="Roboto" text-anchor="middle" font-size="28px"><text x="249.5" y="73.5">A</text></g><rect x="180" y="52" width="120" height="40" rx="6" ry="6" fill="#fff2cc" stroke="#d6b656" stroke-width="2" pointer-events="all"/><g fill="#000000" font-family="Roboto" text-anchor="middle" font-size="28px"><text x="239.5" y="83.5">A</text></g><rect x="500" y="212" width="120" height="40" rx="6" ry="6" fill="#f8cecc" stroke="#b85450" stroke-width="2" pointer-events="all"/><g fill="#990000" font-family="Roboto" text-anchor="middle" font-size="28px"><text x="559.5" y="243.5">C</text></g><rect x="260" y="872" width="120" height="40" rx="6" ry="6" fill="none" stroke="none" pointer-events="all"/><g fill="#999999" font-family="Roboto" font-weight="bold" text-anchor="middle" font-size="24px"><text x="319.5" y="901.5">1</text></g><rect x="420" y="872" width="120" height="40" rx="6" ry="6" fill="none" stroke="none" pointer-events="all"/><g fill="#999999" font-family="Roboto" font-weight="bold" text-anchor="middle" font-size="24px"><text x="479.5" y="901.5">2</text></g><rect x="580" y="872" width="120" height="40" rx="6" ry="6" fill="none" stroke="none" pointer-events="all"/><g fill="#999999" font-family="Roboto" font-weight="bold" text-anchor="middle" font-size="24px"><text x="639.5" y="901.5">3</text></g><rect x="740" y="872" width="120" height="40" rx="6" ry="6" fill="none" stroke="none" pointer-events="all"/><g fill="#999999" font-family="Roboto" font-weight="bold" text-anchor="middle" font-size="24px"><text x="799.5" y="901.5">4</text></g><rect x="140" y="392" width="680" height="80" rx="16" ry="16" fill="none" stroke="#b85450" stroke-width="2" pointer-events="all"/><rect x="140" y="312" width="680" height="80" rx="12" ry="12" fill="none" stroke="#b85450" stroke-width="2" pointer-events="all"/><rect x="140" y="472" width="680" height="80" rx="12" ry="12" fill="none" stroke="#b85450" stroke-width="2" pointer-events="all"/><rect x="100" y="342" width="50" height="20" rx="10" ry="10" fill="#f8cecc" stroke="#b85450" stroke-width="2" pointer-events="all"/><g fill="#660000" font-family="Roboto" font-weight="bold" text-anchor="middle" font-size="16px"><text x="124.5" y="357.5">g1</text></g><rect x="340" y="412" width="120" height="40" rx="6" ry="6" fill="#fff2cc" stroke="#d6b656" stroke-width="2" pointer-events="all"/><g fill="#000000" font-family="Roboto" text-anchor="middle" font-size="28px"><text x="399.5" y="443.5">B</text></g><rect x="500" y="492" width="120" height="40" rx="6" ry="6" fill="#fff2cc" stroke="#d6b656" stroke-width="2" pointer-events="all"/><g fill="#000000" font-family="Roboto" text-anchor="middle" font-size="28px"><text x="559.5" y="523.5">C</text></g><rect x="100" y="422" width="50" height="20" rx="10" ry="10" fill="#f8cecc" stroke="#b85450" stroke-width="2" pointer-events="all"/><g fill="#660000" font-family="Roboto" font-weight="bold" text-anchor="middle" font-size="16px"><text x="124.5" y="437.5">g2</text></g><rect x="100" y="502" width="50" height="20" rx="10" ry="10" fill="#f8cecc" stroke="#b85450" stroke-width="2" pointer-events="all"/><g fill="#660000" font-family="Roboto" font-weight="bold" text-anchor="middle" font-size="16px"><text x="124.5" y="517.5">g3</text></g><rect x="340" y="332" width="120" height="40" rx="6" ry="6" fill="#fff2cc" stroke="#d6b656" stroke-width="2" pointer-events="all"/><g fill="#000000" font-family="Roboto" text-anchor="middle" font-size="28px"><text x="399.5" y="363.5">A</text></g><rect x="140" y="672" width="680" height="80" rx="16" ry="16" fill="none" stroke="#b85450" stroke-width="2" pointer-events="all"/><rect x="140" y="592" width="680" height="80" rx="12" ry="12" fill="none" stroke="#b85450" stroke-width="2" pointer-events="all"/><rect x="140" y="752" width="680" height="80" rx="12" ry="12" fill="none" stroke="#b85450" stroke-width="2" pointer-events="all"/><rect x="100" y="622" width="50" height="20" rx="10" ry="10" fill="#f8cecc" stroke="#b85450" stroke-width="2" pointer-events="all"/><g fill="#660000" font-family="Roboto" font-weight="bold" text-anchor="middle" font-size="16px"><text x="124.5" y="637.5">g1</text></g><rect x="500" y="692" width="120" height="40" rx="6" ry="6" fill="#fff2cc" stroke="#d6b656" stroke-width="2" pointer-events="all"/><g fill="#000000" font-family="Roboto" text-anchor="middle" font-size="28px"><text x="559.5" y="723.5">B</text></g><rect x="660" y="772" width="120" height="40" rx="6" ry="6" fill="#fff2cc" stroke="#d6b656" stroke-width="2" pointer-events="all"/><g fill="#000000" font-family="Roboto" text-anchor="middle" font-size="28px"><text x="719.5" y="803.5">C</text></g><rect x="100" y="702" width="50" height="20" rx="10" ry="10" fill="#f8cecc" stroke="#b85450" stroke-width="2" pointer-events="all"/><g fill="#660000" font-family="Roboto" font-weight="bold" text-anchor="middle" font-size="16px"><text x="124.5" y="717.5">g2</text></g><rect x="100" y="782" width="50" height="20" rx="10" ry="10" fill="#f8cecc" stroke="#b85450" stroke-width="2" pointer-events="all"/><g fill="#660000" font-family="Roboto" font-weight="bold" text-anchor="middle" font-size="16px"><text x="124.5" y="797.5">g3</text></g><rect x="500" y="612" width="120" height="40" rx="6" ry="6" fill="#fff2cc" stroke="#d6b656" stroke-width="2" pointer-events="all"/><g fill="#000000" font-family="Roboto" text-anchor="middle" font-size="28px"><text x="559.5" y="643.5">A</text></g><rect x="660" y="332" width="120" height="40" rx="6" ry="6" fill="#f8cecc" stroke="#b85450" stroke-width="2" pointer-events="all"/><g fill="#990000" font-family="Roboto" text-anchor="middle" font-size="28px"><text x="719.5" y="363.5">A</text></g><rect x="10" y="312" width="90" height="40" rx="20" ry="20" fill="#dae8fc" stroke="#6c8ebf" stroke-width="2" pointer-events="all"/><g fill="#003366" font-family="Roboto" font-weight="bold" text-anchor="middle" font-size="24px"><text x="54.5" y="341.5">Job 2</text></g><rect x="10" y="592" width="90" height="40" rx="20" ry="20" fill="#dae8fc" stroke="#6c8ebf" stroke-width="2" pointer-events="all"/><g fill="#003366" font-family="Roboto" font-weight="bold" text-anchor="middle" font-size="24px"><text x="54.5" y="621.5">Job 3</text></g><rect x="100" y="142" width="50" height="20" rx="10" ry="10" fill="#f8cecc" stroke="#b85450" stroke-width="2" pointer-events="all"/><g fill="#660000" font-family="Roboto" font-weight="bold" text-anchor="middle" font-size="16px"><text x="124.5" y="157.5">g2</text></g><rect x="100" y="62" width="50" height="20" rx="10" ry="10" fill="#f8cecc" stroke="#b85450" stroke-width="2" pointer-events="all"/><g fill="#660000" font-family="Roboto" font-weight="bold" text-anchor="middle" font-size="16px"><text x="124.5" y="77.5">g1</text></g></g></svg>