<?xml version="1.0" encoding="UTF-8"?>
<!DOCTYPE svg PUBLIC "-//W3C//DTD SVG 1.1//EN" "http://www.w3.org/Graphics/SVG/1.1/DTD/svg11.dtd">
<svg xmlns="http://www.w3.org/2000/svg" xmlns:xlink="http://www.w3.org/1999/xlink" version="1.1" width="1512px" height="1163px" viewBox="-0.5 -0.5 1512 1163"><defs><style type="text/css">@import url(https://fonts.googleapis.com/css?family=Roboto);&#xa;</style></defs><g><rect x="140" y="152" width="1320" height="80" rx="16" ry="16" fill="none" stroke="#b85450" stroke-width="2" pointer-events="all"/><rect x="80" y="12" width="1400" height="360" rx="18" ry="18" fill="none" stroke="#6c8ebf" stroke-width="2" pointer-events="all"/><rect x="140" y="32" width="1320" height="120" rx="18" ry="18" fill="none" stroke="#b85450" stroke-width="2" pointer-events="all"/><rect x="100" y="1112" width="120" height="40" rx="6" ry="6" fill="none" stroke="none" pointer-events="all"/><g fill="#999999" font-family="Roboto" font-weight="bold" text-anchor="middle" font-size="24px"><text x="159.5" y="1141.5">0</text></g><rect x="350" y="82" width="120" height="40" rx="6" ry="6" fill="#f8cecc" stroke="#b85450" stroke-width="2" pointer-events="all"/><g fill="#990000" font-family="Roboto" text-anchor="middle" font-size="28px"><text x="409.5" y="113.5">B</text></g><path d="M 160 1112 L 160 12" fill="none" stroke="#999999" stroke-width="4" stroke-miterlimit="10" stroke-dasharray="4 4" pointer-events="stroke"/><rect x="80" y="372" width="1400" height="360" rx="18" ry="18" fill="none" stroke="#6c8ebf" stroke-width="2" pointer-events="all"/><rect x="140" y="512" width="1320" height="80" rx="16" ry="16" fill="none" stroke="#b85450" stroke-width="2" pointer-events="all"/><rect x="140" y="232" width="1320" height="120" rx="18" ry="18" fill="none" stroke="#b85450" stroke-width="2" pointer-events="all"/><rect x="340" y="92" width="120" height="40" rx="6" ry="6" fill="#fff2cc" stroke="#d6b656" stroke-width="2" pointer-events="all"/><g fill="#000000" font-family="Roboto" text-anchor="middle" font-size="28px"><text x="399.5" y="123.5">B</text></g><rect x="100" y="82" width="50" height="20" rx="10" ry="10" fill="#f8cecc" stroke="#b85450" stroke-width="2" pointer-events="all"/><g fill="#660000" font-family="Roboto" font-weight="bold" text-anchor="middle" font-size="16px"><text x="124.5" y="97.5">g1</text></g><rect x="180" y="172" width="120" height="40" rx="6" ry="6" fill="#fff2cc" stroke="#d6b656" stroke-width="2" pointer-events="all"/><g fill="#000000" font-family="Roboto" text-anchor="middle" font-size="28px"><text x="239.5" y="203.5">C</text></g><rect x="500" y="252" width="120" height="40" rx="6" ry="6" fill="#fff2cc" stroke="#d6b656" stroke-width="2" pointer-events="all"/><g fill="#000000" font-family="Roboto" text-anchor="middle" font-size="28px"><text x="559.5" y="283.5">D</text></g><rect x="100" y="182" width="50" height="20" rx="10" ry="10" fill="#f8cecc" stroke="#b85450" stroke-width="2" pointer-events="all"/><g fill="#660000" font-family="Roboto" font-weight="bold" text-anchor="middle" font-size="16px"><text x="124.5" y="197.5">g2</text></g><rect x="100" y="282" width="50" height="20" rx="10" ry="10" fill="#f8cecc" stroke="#b85450" stroke-width="2" pointer-events="all"/><g fill="#660000" font-family="Roboto" font-weight="bold" text-anchor="middle" font-size="16px"><text x="124.5" y="297.5">g3</text></g><rect x="10" y="32" width="90" height="40" rx="20" ry="20" fill="#dae8fc" stroke="#6c8ebf" stroke-width="2" pointer-events="all"/><g fill="#003366" font-family="Roboto" font-weight="bold" text-anchor="middle" font-size="24px"><text x="54.5" y="61.5">Job 1</text></g><rect x="140" y="592" width="1320" height="120" rx="18" ry="18" fill="none" stroke="#b85450" stroke-width="2" pointer-events="all"/><rect x="140" y="392" width="1320" height="120" rx="18" ry="18" fill="none" stroke="#b85450" stroke-width="2" pointer-events="all"/><rect x="500" y="412" width="120" height="40" rx="6" ry="6" fill="#fff2cc" stroke="#d6b656" stroke-width="2" pointer-events="all"/><g fill="#000000" font-family="Roboto" text-anchor="middle" font-size="28px"><text x="559.5" y="443.5">A</text></g><rect x="660" y="452" width="120" height="40" rx="6" ry="6" fill="#fff2cc" stroke="#d6b656" stroke-width="2" pointer-events="all"/><g fill="#000000" font-family="Roboto" text-anchor="middle" font-size="28px"><text x="719.5" y="483.5">B</text></g><rect x="100" y="442" width="50" height="20" rx="10" ry="10" fill="#f8cecc" stroke="#b85450" stroke-width="2" pointer-events="all"/><g fill="#660000" font-family="Roboto" font-weight="bold" text-anchor="middle" font-size="16px"><text x="124.5" y="457.5">g1</text></g><rect x="340" y="532" width="120" height="40" rx="6" ry="6" fill="#fff2cc" stroke="#d6b656" stroke-width="2" pointer-events="all"/><g fill="#000000" font-family="Roboto" text-anchor="middle" font-size="28px"><text x="399.5" y="563.5">C</text></g><rect x="820" y="612" width="120" height="40" rx="6" ry="6" fill="#fff2cc" stroke="#d6b656" stroke-width="2" pointer-events="all"/><g fill="#000000" font-family="Roboto" text-anchor="middle" font-size="28px"><text x="879.5" y="643.5">D</text></g><rect x="100" y="542" width="50" height="20" rx="10" ry="10" fill="#f8cecc" stroke="#b85450" stroke-width="2" pointer-events="all"/><g fill="#660000" font-family="Roboto" font-weight="bold" text-anchor="middle" font-size="16px"><text x="124.5" y="557.5">g2</text></g><rect x="100" y="642" width="50" height="20" rx="10" ry="10" fill="#f8cecc" stroke="#b85450" stroke-width="2" pointer-events="all"/><g fill="#660000" font-family="Roboto" font-weight="bold" text-anchor="middle" font-size="16px"><text x="124.5" y="657.5">g3</text></g><rect x="980" y="652" width="120" height="40" rx="6" ry="6" fill="#fff2cc" stroke="#d6b656" stroke-width="2" pointer-events="all"/><g fill="#000000" font-family="Roboto" text-anchor="middle" font-size="28px"><text x="1039.5" y="683.5">E</text></g><rect x="10" y="392" width="90" height="40" rx="20" ry="20" fill="#dae8fc" stroke="#6c8ebf" stroke-width="2" pointer-events="all"/><g fill="#003366" font-family="Roboto" font-weight="bold" text-anchor="middle" font-size="24px"><text x="54.5" y="421.5">Job 2</text></g><rect x="80" y="732" width="1400" height="360" rx="18" ry="18" fill="none" stroke="#6c8ebf" stroke-width="2" pointer-events="all"/><rect x="140" y="872" width="1320" height="80" rx="16" ry="16" fill="none" stroke="#b85450" stroke-width="2" pointer-events="all"/><rect x="140" y="952" width="1320" height="120" rx="18" ry="18" fill="none" stroke="#b85450" stroke-width="2" pointer-events="all"/><rect x="140" y="752" width="1320" height="120" rx="18" ry="18" fill="none" stroke="#b85450" stroke-width="2" pointer-events="all"/><rect x="820" y="772" width="120" height="40" rx="6" ry="6" fill="#fff2cc" stroke="#d6b656" stroke-width="2" pointer-events="all"/><g fill="#000000" font-family="Roboto" text-anchor="middle" font-size="28px"><text x="879.5" y="803.5">A</text></g><rect x="980" y="812" width="120" height="40" rx="6" ry="6" fill="#fff2cc" stroke="#d6b656" stroke-width="2" pointer-events="all"/><g fill="#000000" font-family="Roboto" text-anchor="middle" font-size="28px"><text x="1039.5" y="843.5">B</text></g><rect x="100" y="802" width="50" height="20" rx="10" ry="10" fill="#f8cecc" stroke="#b85450" stroke-width="2" pointer-events="all"/><g fill="#660000" font-family="Roboto" font-weight="bold" text-anchor="middle" font-size="16px"><text x="124.5" y="817.5">g1</text></g><rect x="500" y="892" width="120" height="40" rx="6" ry="6" fill="#fff2cc" stroke="#d6b656" stroke-width="2" pointer-events="all"/><g fill="#000000" font-family="Roboto" text-anchor="middle" font-size="28px"><text x="559.5" y="923.5">C</text></g><rect x="1140" y="972" width="120" height="40" rx="6" ry="6" fill="#fff2cc" stroke="#d6b656" stroke-width="2" pointer-events="all"/><g fill="#000000" font-family="Roboto" text-anchor="middle" font-size="28px"><text x="1199.5" y="1003.5">D</text></g><rect x="100" y="902" width="50" height="20" rx="10" ry="10" fill="#f8cecc" stroke="#b85450" stroke-width="2" pointer-events="all"/><g fill="#660000" font-family="Roboto" font-weight="bold" text-anchor="middle" font-size="16px"><text x="124.5" y="917.5">g2</text></g><rect x="100" y="1002" width="50" height="20" rx="10" ry="10" fill="#f8cecc" stroke="#b85450" stroke-width="2" pointer-events="all"/><g fill="#660000" font-family="Roboto" font-weight="bold" text-anchor="middle" font-size="16px"><text x="124.5" y="1017.5">g3</text></g><rect x="1300" y="1012" width="120" height="40" rx="6" ry="6" fill="#fff2cc" stroke="#d6b656" stroke-width="2" pointer-events="all"/><g fill="#000000" font-family="Roboto" text-anchor="middle" font-size="28px"><text x="1359.5" y="1043.5">E</text></g><rect x="10" y="752" width="90" height="40" rx="20" ry="20" fill="#dae8fc" stroke="#6c8ebf" stroke-width="2" pointer-events="all"/><g fill="#003366" font-family="Roboto" font-weight="bold" text-anchor="middle" font-size="24px"><text x="54.5" y="781.5">Job 3</text></g><rect x="190" y="42" width="120" height="40" rx="6" ry="6" fill="#f8cecc" stroke="#b85450" stroke-width="2" pointer-events="all"/><g fill="#990000" font-family="Roboto" text-anchor="middle" font-size="28px"><text x="249.5" y="73.5">A</text></g><rect x="180" y="52" width="120" height="40" rx="6" ry="6" fill="#fff2cc" stroke="#d6b656" stroke-width="2" pointer-events="all"/><g fill="#000000" font-family="Roboto" text-anchor="middle" font-size="28px"><text x="239.5" y="83.5">A</text></g><rect x="660" y="252" width="120" height="40" rx="6" ry="6" fill="#f8cecc" stroke="#b85450" stroke-width="2" pointer-events="all"/><g fill="#990000" font-family="Roboto" text-anchor="middle" font-size="28px"><text x="719.5" y="283.5">D</text></g><rect x="500" y="172" width="120" height="40" rx="6" ry="6" fill="#f8cecc" stroke="#b85450" stroke-width="2" pointer-events="all"/><g fill="#990000" font-family="Roboto" text-anchor="middle" font-size="28px"><text x="559.5" y="203.5">C</text></g><rect x="660" y="292" width="120" height="40" rx="6" ry="6" fill="#fff2cc" stroke="#d6b656" stroke-width="2" pointer-events="all"/><g fill="#000000" font-family="Roboto" text-anchor="middle" font-size="28px"><text x="719.5" y="323.5">E</text></g><rect x="820" y="292" width="120" height="40" rx="6" ry="6" fill="#f8cecc" stroke="#b85450" stroke-width="2" pointer-events="all"/><g fill="#990000" font-family="Roboto" text-anchor="middle" font-size="28px"><text x="879.5" y="323.5">E</text></g><rect x="980" y="412" width="120" height="40" rx="6" ry="6" fill="#f8cecc" stroke="#b85450" stroke-width="2" pointer-events="all"/><g fill="#990000" font-family="Roboto" text-anchor="middle" font-size="28px"><text x="1039.5" y="443.5">A</text></g><rect x="1140" y="462" width="120" height="40" rx="6" ry="6" fill="#f8cecc" stroke="#b85450" stroke-width="2" pointer-events="all"/><g fill="#990000" font-family="Roboto" text-anchor="middle" font-size="28px"><text x="1199.5" y="493.5">B</text></g><rect x="1300" y="532" width="120" height="40" rx="6" ry="6" fill="#f8cecc" stroke="#b85450" stroke-width="2" pointer-events="all"/><g fill="#990000" font-family="Roboto" text-anchor="middle" font-size="28px"><text x="1359.5" y="563.5">C</text></g><path d="M 320 1112 L 320 12" fill="none" stroke="#999999" stroke-width="4" stroke-miterlimit="10" stroke-dasharray="4 4" pointer-events="stroke"/><rect x="260" y="1112" width="120" height="40" rx="6" ry="6" fill="none" stroke="none" pointer-events="all"/><g fill="#999999" font-family="Roboto" font-weight="bold" text-anchor="middle" font-size="24px"><text x="319.5" y="1141.5">1</text></g><path d="M 480 1112 L 480 12" fill="none" stroke="#999999" stroke-width="4" stroke-miterlimit="10" stroke-dasharray="4 4" pointer-events="stroke"/><rect x="420" y="1112" width="120" height="40" rx="6" ry="6" fill="none" stroke="none" pointer-events="all"/><g fill="#999999" font-family="Roboto" font-weight="bold" text-anchor="middle" font-size="24px"><text x="479.5" y="1141.5">2</text></g><path d="M 640 1112 L 640 12" fill="none" stroke="#999999" stroke-width="4" stroke-miterlimit="10" stroke-dasharray="4 4" pointer-events="stroke"/><rect x="580" y="1112" width="120" height="40" rx="6" ry="6" fill="none" stroke="none" pointer-events="all"/><g fill="#999999" font-family="Roboto" font-weight="bold" text-anchor="middle" font-size="24px"><text x="639.5" y="1141.5">3</text></g><path d="M 800 1112 L 800 12" fill="none" stroke="#999999" stroke-width="4" stroke-miterlimit="10" stroke-dasharray="4 4" pointer-events="stroke"/><rect x="740" y="1112" width="120" height="40" rx="6" ry="6" fill="none" stroke="none" pointer-events="all"/><g fill="#999999" font-family="Roboto" font-weight="bold" text-anchor="middle" font-size="24px"><text x="799.5" y="1141.5">4</text></g><path d="M 960 1112 L 960 12" fill="none" stroke="#999999" stroke-width="4" stroke-miterlimit="10" stroke-dasharray="4 4" pointer-events="stroke"/><rect x="900" y="1112" width="120" height="40" rx="6" ry="6" fill="none" stroke="none" pointer-events="all"/><g fill="#999999" font-family="Roboto" font-weight="bold" text-anchor="middle" font-size="24px"><text x="959.5" y="1141.5">5</text></g><path d="M 1120 1112 L 1120 12" fill="none" stroke="#999999" stroke-width="4" stroke-miterlimit="10" stroke-dasharray="4 4" pointer-events="stroke"/><rect x="1060" y="1112" width="120" height="40" rx="6" ry="6" fill="none" stroke="none" pointer-events="all"/><g fill="#999999" font-family="Roboto" font-weight="bold" text-anchor="middle" font-size="24px"><text x="1119.5" y="1141.5">6</text></g><path d="M 1280 1112 L 1280 12" fill="none" stroke="#999999" stroke-width="4" stroke-miterlimit="10" stroke-dasharray="4 4" pointer-events="stroke"/><rect x="1220" y="1112" width="120" height="40" rx="6" ry="6" fill="none" stroke="none" pointer-events="all"/><g fill="#999999" font-family="Roboto" font-weight="bold" text-anchor="middle" font-size="24px"><text x="1279.5" y="1141.5">7</text></g><path d="M 1440 1112 L 1440 12" fill="none" stroke="#999999" stroke-width="4" stroke-miterlimit="10" stroke-dasharray="4 4" pointer-events="stroke"/><rect x="1380" y="1112" width="120" height="40" rx="6" ry="6" fill="none" stroke="none" pointer-events="all"/><g fill="#999999" font-family="Roboto" font-weight="bold" text-anchor="middle" font-size="24px"><text x="1439.5" y="1141.5">8</text></g></g></svg>