<?xml version="1.0" encoding="UTF-8"?>
<!DOCTYPE svg PUBLIC "-//W3C//DTD SVG 1.1//EN" "http://www.w3.org/Graphics/SVG/1.1/DTD/svg11.dtd">
<svg xmlns="http://www.w3.org/2000/svg" xmlns:xlink="http://www.w3.org/1999/xlink" version="1.1" width="822px" height="352px" viewBox="-0.5 -0.5 822 352"><defs><style type="text/css">@import url(https://fonts.googleapis.com/css?family=Roboto);&#xa;</style></defs><g><rect x="10" y="20" width="440" height="300" rx="24" ry="24" fill="none" stroke="#b85450" stroke-width="2" pointer-events="all"/><rect x="490" y="20" width="280" height="120" rx="18" ry="18" fill="none" stroke="#b85450" stroke-width="2" pointer-events="all"/><rect x="350" y="40" width="80" height="80" fill="#fff2cc" stroke="#d6b656" stroke-width="2" pointer-events="all"/><g fill="#000000" font-family="Roboto" text-anchor="middle" font-size="32px"><text x="389.5" y="93.5">C</text></g><path d="M 590 80 L 661.76 80" fill="none" stroke="#b85450" stroke-width="2" stroke-miterlimit="10" pointer-events="stroke"/><path d="M 667.76 80 L 659.76 84 L 661.76 80 L 659.76 76 Z" fill="#b85450" stroke="#b85450" stroke-width="2" stroke-miterlimit="10" pointer-events="all"/><rect x="510" y="40" width="80" height="80" fill="#fff2cc" stroke="#d6b656" stroke-width="2" pointer-events="all"/><g fill="#000000" font-family="Roboto" text-anchor="middle" font-size="32px"><text x="549.5" y="93.5">D</text></g><path d="M 430 80 L 501.76 80" fill="none" stroke="#b85450" stroke-width="2" stroke-miterlimit="10" pointer-events="stroke"/><path d="M 507.76 80 L 499.76 84 L 501.76 80 L 499.76 76 Z" fill="#b85450" stroke="#b85450" stroke-width="2" stroke-miterlimit="10" pointer-events="all"/><rect x="30" y="120" width="80" height="80" fill="#fff2cc" stroke="#d6b656" stroke-width="2" pointer-events="all"/><g fill="#000000" font-family="Roboto" text-anchor="middle" font-size="32px"><text x="69.5" y="173.5">A</text></g><path d="M 270 80 L 341.76 80" fill="none" stroke="#b85450" stroke-width="2" stroke-miterlimit="10" pointer-events="stroke"/><path d="M 347.76 80 L 339.76 84 L 341.76 80 L 339.76 76 Z" fill="#b85450" stroke="#b85450" stroke-width="2" stroke-miterlimit="10" pointer-events="all"/><rect x="190" y="40" width="80" height="80" fill="#fff2cc" stroke="#d6b656" stroke-width="2" pointer-events="all"/><g fill="#000000" font-family="Roboto" text-anchor="middle" font-size="32px"><text x="229.5" y="93.5">B</text></g><path d="M 110 160 L 130 160 Q 150 160 150 140 L 150 100 Q 150 80 165.88 80 L 181.76 80" fill="none" stroke="#b85450" stroke-width="2" stroke-miterlimit="10" pointer-events="stroke"/><path d="M 187.76 80 L 179.76 84 L 181.76 80 L 179.76 76 Z" fill="#b85450" stroke="#b85450" stroke-width="2" stroke-miterlimit="10" pointer-events="all"/><rect x="177.5" y="10" width="105" height="20" rx="10" ry="10" fill="#f8cecc" stroke="#b85450" stroke-width="2" pointer-events="all"/><g fill="#660000" font-family="Roboto" font-weight="bold" text-anchor="middle" font-size="16px"><text x="229.5" y="25.5">group_1</text></g><rect x="270" y="220" width="80" height="80" fill="#e1d5e7" stroke="#9673a6" stroke-width="2" pointer-events="all"/><g fill="#000000" font-family="Roboto" text-anchor="middle" font-size="32px"><text x="309.5" y="273.5">E</text></g><path d="M 110 160 L 130 160 Q 150 160 150 180 L 150 240 Q 150 260 170 260 L 261.76 260" fill="none" stroke="#b85450" stroke-width="2" stroke-miterlimit="10" pointer-events="stroke"/><path d="M 267.76 260 L 259.76 264 L 261.76 260 L 259.76 256 Z" fill="#b85450" stroke="#b85450" stroke-width="2" stroke-miterlimit="10" pointer-events="all"/><rect x="285" y="210" width="50" height="20" rx="10" ry="10" fill="#e1d5e7" stroke="#9673a6" stroke-width="2" pointer-events="all"/><g fill="#000000" font-family="Roboto" font-weight="bold" text-anchor="middle" font-size="16px"><text x="309.5" y="225.5">AGG</text></g><path d="M 350 260 L 501.76 260" fill="none" stroke="#9673a6" stroke-width="2" stroke-miterlimit="10" pointer-events="stroke"/><path d="M 507.76 260 L 499.76 264 L 501.76 260 L 499.76 256 Z" fill="#9673a6" stroke="#9673a6" stroke-width="2" stroke-miterlimit="10" pointer-events="all"/><rect x="577.5" y="10" width="105" height="20" rx="10" ry="10" fill="#f8cecc" stroke="#b85450" stroke-width="2" pointer-events="all"/><g fill="#660000" font-family="Roboto" font-weight="bold" text-anchor="middle" font-size="16px"><text x="629.5" y="25.5">group_2</text></g><rect x="670" y="40" width="80" height="80" fill="#fff2cc" stroke="#d6b656" stroke-width="2" pointer-events="all"/><g fill="#000000" font-family="Roboto" text-anchor="middle" font-size="32px"><text x="709.5" y="93.5">E</text></g><rect x="470" y="160" width="340" height="180" rx="19.8" ry="19.8" fill="none" stroke="#82b366" stroke-width="2" pointer-events="all"/><rect x="570" y="150" width="140" height="20" rx="10" ry="10" fill="#d5e8d4" stroke="#82b366" stroke-width="2" pointer-events="all"/><g fill="#003300" font-family="Roboto" font-weight="bold" text-anchor="middle" font-size="16px"><text x="639.5" y="165.5">replicas = 3</text></g><rect x="690" y="200" width="80" height="80" fill-opacity="0.25" fill="#e1d5e7" stroke="#9673a6" stroke-opacity="0.25" stroke-width="2" pointer-events="none"/><rect x="510" y="180" width="280" height="120" rx="18" ry="18" fill="none" stroke="#b85450" stroke-opacity="0.25" stroke-width="2" pointer-events="none"/><rect x="530" y="200" width="80" height="80" fill-opacity="0.25" fill="#e1d5e7" stroke="#9673a6" stroke-opacity="0.25" stroke-width="2" pointer-events="none"/><path d="M 610 240 L 681.76 240" fill="none" stroke="#9673a6" stroke-opacity="0.25" stroke-width="2" stroke-miterlimit="10" pointer-events="none"/><path d="M 687.76 240 L 679.76 244 L 681.76 240 L 679.76 236 Z" fill-opacity="0.25" fill="#9673a6" stroke="#9673a6" stroke-opacity="0.25" stroke-width="2" stroke-miterlimit="10" pointer-events="none"/><rect x="680" y="210" width="80" height="80" fill-opacity="0.25" fill="#e1d5e7" stroke="#9673a6" stroke-opacity="0.25" stroke-width="2" pointer-events="none"/><rect x="500" y="190" width="280" height="120" rx="18" ry="18" fill="none" stroke="#b85450" stroke-opacity="0.25" stroke-width="2" pointer-events="none"/><rect x="520" y="210" width="80" height="80" fill-opacity="0.25" fill="#e1d5e7" stroke="#9673a6" stroke-opacity="0.25" stroke-width="2" pointer-events="none"/><path d="M 600 250 L 671.76 250" fill="none" stroke="#9673a6" stroke-opacity="0.25" stroke-width="2" stroke-miterlimit="10" pointer-events="none"/><path d="M 677.76 250 L 669.76 254 L 671.76 250 L 669.76 246 Z" fill-opacity="0.25" fill="#9673a6" stroke="#9673a6" stroke-opacity="0.25" stroke-width="2" stroke-miterlimit="10" pointer-events="none"/><rect x="490" y="200" width="280" height="120" rx="18" ry="18" fill="none" stroke="#b85450" stroke-width="2" pointer-events="none"/><rect x="510" y="220" width="80" height="80" fill="#e1d5e7" stroke="#9673a6" stroke-width="2" pointer-events="none"/><g fill="#000000" font-family="Roboto" pointer-events="none" text-anchor="middle" font-size="32px"><text x="549.5" y="273.5">G</text></g><rect x="670" y="220" width="80" height="80" fill="#e1d5e7" stroke="#9673a6" stroke-width="2" pointer-events="none"/><g fill="#000000" font-family="Roboto" pointer-events="none" text-anchor="middle" font-size="32px"><text x="709.5" y="273.5">H</text></g><path d="M 590 260 L 661.76 260" fill="none" stroke="#9673a6" stroke-width="2" stroke-miterlimit="10" pointer-events="none"/><path d="M 667.76 260 L 659.76 264 L 661.76 260 L 659.76 256 Z" fill="#9673a6" stroke="#9673a6" stroke-width="2" stroke-miterlimit="10" pointer-events="none"/><rect x="580" y="190" width="105" height="20" rx="10" ry="10" fill="#f8cecc" stroke="#b85450" stroke-width="2" pointer-events="none"/><g fill="#660000" font-family="Roboto" font-weight="bold" pointer-events="none" text-anchor="middle" font-size="16px"><text x="632" y="205.5">group_3</text></g></g></svg>