<?xml version="1.0" encoding="UTF-8"?>
<!DOCTYPE svg PUBLIC "-//W3C//DTD SVG 1.1//EN" "http://www.w3.org/Graphics/SVG/1.1/DTD/svg11.dtd">
<svg xmlns="http://www.w3.org/2000/svg" xmlns:xlink="http://www.w3.org/1999/xlink" version="1.1" width="1142px" height="402px" viewBox="-0.5 -0.5 1142 402"><defs><style type="text/css">@import url(https://fonts.googleapis.com/css?family=Roboto);&#xa;</style></defs><g><rect x="10" y="10" width="1120" height="380" fill-opacity="0" fill="#000000" stroke="none" pointer-events="none"/><rect x="170" y="45" width="340" height="180" rx="19.8" ry="19.8" fill="none" stroke="#82b366" stroke-width="2" pointer-events="none"/><rect x="270" y="35" width="140" height="20" rx="10" ry="10" fill="#d5e8d4" stroke="#82b366" stroke-width="2" pointer-events="none"/><g fill="#003300" font-family="Roboto" font-weight="bold" pointer-events="none" text-anchor="middle" font-size="16px"><text x="339.5" y="50.5">replicas = 3</text></g><rect x="530" y="85" width="440" height="280" rx="22.4" ry="22.4" fill="none" stroke="#b85450" stroke-width="2" pointer-events="none"/><rect x="370" y="245" width="120" height="120" rx="18" ry="18" fill="none" stroke="#b85450" stroke-width="2" pointer-events="none"/><rect x="390" y="265" width="80" height="80" fill="#fff2cc" stroke="#d6b656" stroke-width="2" pointer-events="none"/><g fill="#000000" font-family="Roboto" pointer-events="none" text-anchor="middle" font-size="32px"><text x="429.5" y="318.5">C</text></g><rect x="550" y="185" width="80" height="80" fill="#fff2cc" stroke="#d6b656" stroke-width="2" pointer-events="none"/><g fill="#000000" font-family="Roboto" pointer-events="none" text-anchor="middle" font-size="32px"><text x="589.5" y="238.5">D</text></g><path d="M 470 305 L 490 305 Q 510 305 510 285 L 510 265 Q 510 245 525.88 245 L 541.76 245" fill="none" stroke="#b85450" stroke-width="2" stroke-miterlimit="10" pointer-events="none"/><path d="M 547.76 245 L 539.76 249 L 541.76 245 L 539.76 241 Z" fill="#b85450" stroke="#b85450" stroke-width="2" stroke-miterlimit="10" pointer-events="none"/><rect x="710" y="105" width="80" height="80" fill="#fff2cc" stroke="#d6b656" stroke-width="2" pointer-events="none"/><g fill="#000000" font-family="Roboto" pointer-events="none" text-anchor="middle" font-size="32px"><text x="749.5" y="158.5">E</text></g><path d="M 630 225 L 650 225 Q 670 225 670 205 L 670 165 Q 670 145 685.88 145 L 701.76 145" fill="none" stroke="#b85450" stroke-width="2" stroke-miterlimit="10" pointer-events="none"/><path d="M 707.76 145 L 699.76 149 L 701.76 145 L 699.76 141 Z" fill="#b85450" stroke="#b85450" stroke-width="2" stroke-miterlimit="10" pointer-events="none"/><rect x="405" y="235" width="50" height="20" rx="10" ry="10" fill="#f8cecc" stroke="#b85450" stroke-width="2" pointer-events="none"/><g fill="#660000" font-family="Roboto" font-weight="bold" pointer-events="none" text-anchor="middle" font-size="16px"><text x="429.5" y="250.5">g2</text></g><rect x="725" y="75" width="50" height="20" rx="10" ry="10" fill="#f8cecc" stroke="#b85450" stroke-width="2" pointer-events="none"/><g fill="#660000" font-family="Roboto" font-weight="bold" pointer-events="none" text-anchor="middle" font-size="16px"><text x="749.5" y="90.5">g3</text></g><rect x="710" y="265" width="80" height="80" fill="#fff2cc" stroke="#d6b656" stroke-width="2" pointer-events="none"/><g fill="#000000" font-family="Roboto" pointer-events="none" text-anchor="middle" font-size="32px"><text x="749.5" y="318.5">E</text></g><path d="M 630 225 L 650 225 Q 670 225 670 245 L 670 285 Q 670 305 685.88 305 L 701.76 305" fill="none" stroke="#b85450" stroke-width="2" stroke-miterlimit="10" pointer-events="none"/><path d="M 707.76 305 L 699.76 309 L 701.76 305 L 699.76 301 Z" fill="#b85450" stroke="#b85450" stroke-width="2" stroke-miterlimit="10" pointer-events="none"/><rect x="870" y="185" width="80" height="80" fill="#fff2cc" stroke="#d6b656" stroke-width="2" pointer-events="none"/><g fill="#000000" font-family="Roboto" pointer-events="none" text-anchor="middle" font-size="32px"><text x="909.5" y="238.5">F</text></g><path d="M 790 145 L 810 145 Q 830 145 830 165 L 830 185 Q 830 205 845.88 205 L 861.76 205" fill="none" stroke="#b85450" stroke-width="2" stroke-miterlimit="10" pointer-events="none"/><path d="M 867.76 205 L 859.76 209 L 861.76 205 L 859.76 201 Z" fill="#b85450" stroke="#b85450" stroke-width="2" stroke-miterlimit="10" pointer-events="none"/><path d="M 790 305 L 810 305 Q 830 305 830 285 L 830 265 Q 830 245 845.88 245 L 861.76 245" fill="none" stroke="#b85450" stroke-width="2" stroke-miterlimit="10" pointer-events="none"/><path d="M 867.76 245 L 859.76 249 L 861.76 245 L 859.76 241 Z" fill="#b85450" stroke="#b85450" stroke-width="2" stroke-miterlimit="10" pointer-events="none"/><rect x="390" y="85" width="80" height="80" fill-opacity="0.25" fill="#fff2cc" stroke="#d6b656" stroke-opacity="0.25" stroke-width="2" pointer-events="none"/><rect x="210" y="65" width="280" height="120" rx="18" ry="18" fill="none" stroke="#b85450" stroke-opacity="0.25" stroke-width="2" pointer-events="none"/><rect x="230" y="85" width="80" height="80" fill-opacity="0.25" fill="#fff2cc" stroke="#d6b656" stroke-opacity="0.25" stroke-width="2" pointer-events="none"/><path d="M 310 125 L 381.76 125" fill="none" stroke="#b85450" stroke-opacity="0.25" stroke-width="2" stroke-miterlimit="10" pointer-events="none"/><path d="M 387.76 125 L 379.76 129 L 381.76 125 L 379.76 121 Z" fill-opacity="0.25" fill="#b85450" stroke="#b85450" stroke-opacity="0.25" stroke-width="2" stroke-miterlimit="10" pointer-events="none"/><rect x="380" y="95" width="80" height="80" fill-opacity="0.25" fill="#fff2cc" stroke="#d6b656" stroke-opacity="0.25" stroke-width="2" pointer-events="none"/><rect x="200" y="75" width="280" height="120" rx="18" ry="18" fill="none" stroke="#b85450" stroke-opacity="0.25" stroke-width="2" pointer-events="none"/><rect x="220" y="95" width="80" height="80" fill-opacity="0.25" fill="#fff2cc" stroke="#d6b656" stroke-opacity="0.25" stroke-width="2" pointer-events="none"/><path d="M 300 135 L 371.76 135" fill="none" stroke="#b85450" stroke-opacity="0.25" stroke-width="2" stroke-miterlimit="10" pointer-events="none"/><path d="M 377.76 135 L 369.76 139 L 371.76 135 L 369.76 131 Z" fill-opacity="0.25" fill="#b85450" stroke="#b85450" stroke-opacity="0.25" stroke-width="2" stroke-miterlimit="10" pointer-events="none"/><rect x="190" y="85" width="280" height="120" rx="18" ry="18" fill="none" stroke="#b85450" stroke-width="2" pointer-events="none"/><rect x="210" y="105" width="80" height="80" fill="#fff2cc" stroke="#d6b656" stroke-width="2" pointer-events="none"/><g fill="#000000" font-family="Roboto" pointer-events="none" text-anchor="middle" font-size="32px"><text x="249.5" y="158.5">A</text></g><rect x="370" y="105" width="80" height="80" fill="#fff2cc" stroke="#d6b656" stroke-width="2" pointer-events="none"/><g fill="#000000" font-family="Roboto" pointer-events="none" text-anchor="middle" font-size="32px"><text x="409.5" y="158.5">B</text></g><path d="M 290 145 L 361.76 145" fill="none" stroke="#b85450" stroke-width="2" stroke-miterlimit="10" pointer-events="none"/><path d="M 367.76 145 L 359.76 149 L 361.76 145 L 359.76 141 Z" fill="#b85450" stroke="#b85450" stroke-width="2" stroke-miterlimit="10" pointer-events="none"/><rect x="305" y="75" width="50" height="20" rx="10" ry="10" fill="#f8cecc" stroke="#b85450" stroke-width="2" pointer-events="none"/><g fill="#660000" font-family="Roboto" font-weight="bold" pointer-events="none" text-anchor="middle" font-size="16px"><text x="329.5" y="90.5">g1</text></g><path d="M 450 145 L 480 145 Q 500 145 500 165 L 500 185 Q 500 205 520 205 L 541.76 205" fill="none" stroke="#b85450" stroke-width="2" stroke-miterlimit="10" pointer-events="none"/><path d="M 547.76 205 L 539.76 209 L 541.76 205 L 539.76 201 Z" fill="#b85450" stroke="#b85450" stroke-width="2" stroke-miterlimit="10" pointer-events="none"/></g></svg>