<?xml version="1.0" encoding="UTF-8"?>
<!DOCTYPE svg PUBLIC "-//W3C//DTD SVG 1.1//EN" "http://www.w3.org/Graphics/SVG/1.1/DTD/svg11.dtd">
<svg xmlns="http://www.w3.org/2000/svg" xmlns:xlink="http://www.w3.org/1999/xlink" version="1.1" width="1142px" height="402px" viewBox="-0.5 -0.5 1142 402"><defs><style type="text/css">@import url(https://fonts.googleapis.com/css?family=Roboto);&#xa;</style></defs><g><rect x="10" y="10" width="1120" height="380" fill-opacity="0" fill="#000000" stroke="none" pointer-events="none"/><rect x="210" y="80" width="80" height="80" fill="#fff2cc" stroke="#d6b656" stroke-width="2" pointer-events="none"/><g fill="#000000" font-family="Roboto" pointer-events="none" text-anchor="middle" font-size="32px"><text x="249.5" y="133.5">A</text></g><rect x="210" y="240" width="80" height="80" fill="#fff2cc" stroke="#d6b656" stroke-width="2" pointer-events="none"/><g fill="#000000" font-family="Roboto" pointer-events="none" text-anchor="middle" font-size="32px"><text x="249.5" y="293.5">B</text></g><rect x="370" y="160" width="80" height="80" fill="#fff2cc" stroke="#d6b656" stroke-width="2" pointer-events="none"/><g fill="#000000" font-family="Roboto" pointer-events="none" text-anchor="middle" font-size="32px"><text x="409.5" y="213.5">C</text></g><path d="M 290 120 L 310 120 Q 330 120 330 140 L 330 160 Q 330 180 345.88 180 L 361.76 180" fill="none" stroke="#b85450" stroke-width="2" stroke-miterlimit="10" pointer-events="none"/><path d="M 367.76 180 L 359.76 184 L 361.76 180 L 359.76 176 Z" fill="#b85450" stroke="#b85450" stroke-width="2" stroke-miterlimit="10" pointer-events="none"/><path d="M 290 280 L 310 280 Q 330 280 330 260 L 330 240 Q 330 220 345.88 220 L 361.76 220" fill="none" stroke="#b85450" stroke-width="2" stroke-miterlimit="10" pointer-events="none"/><path d="M 367.76 220 L 359.76 224 L 361.76 220 L 359.76 216 Z" fill="#b85450" stroke="#b85450" stroke-width="2" stroke-miterlimit="10" pointer-events="none"/><rect x="530" y="80" width="80" height="80" fill="#fff2cc" stroke="#d6b656" stroke-width="2" pointer-events="none"/><g fill="#000000" font-family="Roboto" pointer-events="none" text-anchor="middle" font-size="32px"><text x="569.5" y="133.5">D</text></g><path d="M 450 200 L 470 200 Q 490 200 490 180 L 490 140 Q 490 120 505.88 120 L 521.76 120" fill="none" stroke="#b85450" stroke-width="2" stroke-miterlimit="10" pointer-events="none"/><path d="M 527.76 120 L 519.76 124 L 521.76 120 L 519.76 116 Z" fill="#b85450" stroke="#b85450" stroke-width="2" stroke-miterlimit="10" pointer-events="none"/><rect x="530" y="240" width="80" height="80" fill="#fff2cc" stroke="#d6b656" stroke-width="2" pointer-events="none"/><g fill="#000000" font-family="Roboto" pointer-events="none" text-anchor="middle" font-size="32px"><text x="569.5" y="293.5">D</text></g><path d="M 450 200 L 470 200 Q 490 200 490 220 L 490 260 Q 490 280 505.88 280 L 521.76 280" fill="none" stroke="#b85450" stroke-width="2" stroke-miterlimit="10" pointer-events="none"/><path d="M 527.76 280 L 519.76 284 L 521.76 280 L 519.76 276 Z" fill="#b85450" stroke="#b85450" stroke-width="2" stroke-miterlimit="10" pointer-events="none"/><rect x="850" y="160" width="80" height="80" fill="#fff2cc" stroke="#d6b656" stroke-width="2" pointer-events="none"/><g fill="#000000" font-family="Roboto" pointer-events="none" text-anchor="middle" font-size="32px"><text x="889.5" y="213.5">F</text></g><path d="M 610 280 L 790 280 Q 810 280 810 260 L 810 240 Q 810 220 825.88 220 L 841.76 220" fill="none" stroke="#b85450" stroke-width="2" stroke-miterlimit="10" pointer-events="none"/><path d="M 847.76 220 L 839.76 224 L 841.76 220 L 839.76 216 Z" fill="#b85450" stroke="#b85450" stroke-width="2" stroke-miterlimit="10" pointer-events="none"/><path d="M 770 120 L 790 120 Q 810 120 810 140 L 810 160 Q 810 180 825.88 180 L 841.76 180" fill="none" stroke="#b85450" stroke-width="2" stroke-miterlimit="10" pointer-events="none"/><path d="M 847.76 180 L 839.76 184 L 841.76 180 L 839.76 176 Z" fill="#b85450" stroke="#b85450" stroke-width="2" stroke-miterlimit="10" pointer-events="none"/><rect x="690" y="80" width="80" height="80" fill="#fff2cc" stroke="#d6b656" stroke-width="2" pointer-events="none"/><g fill="#000000" font-family="Roboto" pointer-events="none" text-anchor="middle" font-size="32px"><text x="729.5" y="133.5">E</text></g><path d="M 610 120 L 681.76 120" fill="none" stroke="#b85450" stroke-width="2" stroke-miterlimit="10" pointer-events="none"/><path d="M 687.76 120 L 679.76 124 L 681.76 120 L 679.76 116 Z" fill="#b85450" stroke="#b85450" stroke-width="2" stroke-miterlimit="10" pointer-events="none"/></g></svg>