<?xml version="1.0" encoding="UTF-8"?>
<!DOCTYPE svg PUBLIC "-//W3C//DTD SVG 1.1//EN" "http://www.w3.org/Graphics/SVG/1.1/DTD/svg11.dtd">
<svg xmlns="http://www.w3.org/2000/svg" xmlns:xlink="http://www.w3.org/1999/xlink" version="1.1" width="1139px" height="204px" viewBox="-0.5 -0.5 1139 204"><defs><style type="text/css">@import url(https://fonts.googleapis.com/css?family=Roboto);&#xa;</style></defs><g><path d="M 436.1 106.32 L 436.1 96.32 L 599.6 96.32 L 599.6 85.32 L 632.1 101.32 L 599.6 117.32 L 599.6 106.32 Z" fill="#1a1a1a" stroke="#e6e6e6" stroke-width="4" stroke-linejoin="round" stroke-miterlimit="10" pointer-events="all"/><path d="M 748.98 106.32 L 748.98 96.32 L 912.48 96.32 L 912.48 85.32 L 944.98 101.32 L 912.48 117.32 L 912.48 106.32 Z" fill="#1a1a1a" stroke="#e6e6e6" stroke-width="4" stroke-linejoin="round" stroke-miterlimit="10" pointer-events="all"/><path d="M 926.5 52 L 1106.5 52 L 1126.5 102 L 1106.5 152 L 926.5 152 L 946.5 102 Z" fill="#d5e8d4" stroke="#82b366" stroke-width="4" stroke-miterlimit="10" pointer-events="all"/><g fill="#000000" font-family="Roboto" font-weight="bold" text-anchor="middle" font-size="40px"><text x="1026" y="119.5">output</text></g><rect x="632.98" y="12" width="200" height="180" fill="#fff2cc" stroke="#d6b656" stroke-width="4" pointer-events="none"/><g fill="#000000" font-family="Roboto" font-weight="bold" pointer-events="none" text-anchor="middle" font-size="40px"><text x="732.48" y="71.5">Module</text></g><g fill="#000000" font-family="Roboto" font-style="italic" pointer-events="none" text-anchor="middle" font-size="30px"><text x="732.49" y="133.5">raising</text></g><g fill="#000000" font-family="Roboto" font-style="italic" pointer-events="none" text-anchor="middle" font-size="30px"><text x="731.47" y="164.5">to power</text></g><rect x="321.52" y="12" width="200" height="180" fill="#fff2cc" stroke="#d6b656" stroke-width="4" pointer-events="none"/><g fill="#000000" font-family="Roboto" font-weight="bold" pointer-events="none" text-anchor="middle" font-size="40px"><text x="421.02" y="71.5">Module</text></g><g fill="#000000" font-family="Roboto" font-style="italic" pointer-events="none" text-anchor="middle" font-size="30px"><text x="421.03" y="133.5">adding</text></g><g fill="#000000" font-family="Roboto" font-style="italic" pointer-events="none" text-anchor="middle" font-size="30px"><text x="419.39" y="164.5">numbers</text></g><path d="M 123.52 106.42 L 123.52 96.42 L 287.02 96.42 L 287.02 85.42 L 319.52 101.42 L 287.02 117.42 L 287.02 106.42 Z" fill="#1a1a1a" stroke="#e6e6e6" stroke-width="4" stroke-linejoin="round" stroke-miterlimit="10" pointer-events="none"/><path d="M 12 52 L 194.5 52 L 212 102 L 194.5 152 L 12 152 L 29.5 102 Z" fill="#dae8fc" stroke="#6c8ebf" stroke-width="4" stroke-miterlimit="10" pointer-events="none"/><g fill="#000000" font-family="Roboto" font-weight="bold" pointer-events="none" text-anchor="middle" font-size="40px"><text x="111.5" y="119.5">input</text></g></g></svg>