<?xml version="1.0" encoding="UTF-8"?>
<!DOCTYPE svg PUBLIC "-//W3C//DTD SVG 1.1//EN" "http://www.w3.org/Graphics/SVG/1.1/DTD/svg11.dtd">
<svg xmlns="http://www.w3.org/2000/svg" xmlns:xlink="http://www.w3.org/1999/xlink" version="1.1" width="482px" height="222px" viewBox="-0.5 -0.5 482 222"><defs><style type="text/css">@import url(https://fonts.googleapis.com/css?family=Roboto);&#xa;</style></defs><g><rect x="150" y="20" width="180" height="190" rx="19.8" ry="19.8" fill="none" stroke="#82b366" stroke-width="2" pointer-events="all"/><rect x="350" y="70" width="120" height="120" rx="18" ry="18" fill="none" stroke="#b85450" stroke-width="2" pointer-events="all"/><rect x="10" y="70" width="120" height="120" rx="18" ry="18" fill="none" stroke="#b85450" stroke-width="2" pointer-events="all"/><path d="M 110 130 L 181.76 130" fill="none" stroke="#b85450" stroke-width="2" stroke-miterlimit="10" pointer-events="stroke"/><path d="M 187.76 130 L 179.76 134 L 181.76 130 L 179.76 126 Z" fill="#b85450" stroke="#b85450" stroke-width="2" stroke-miterlimit="10" pointer-events="all"/><rect x="30" y="90" width="80" height="80" fill="#fff2cc" stroke="#d6b656" stroke-width="2" pointer-events="all"/><g fill="#000000" font-family="Roboto" text-anchor="middle" font-size="32px"><text x="69.5" y="143.5">A</text></g><rect x="370" y="90" width="80" height="80" fill="#fff2cc" stroke="#d6b656" stroke-width="2" pointer-events="all"/><g fill="#000000" font-family="Roboto" text-anchor="middle" font-size="32px"><text x="409.5" y="143.5">C</text></g><rect x="45" y="60" width="50" height="20" rx="10" ry="10" fill="#f8cecc" stroke="#b85450" stroke-width="2" pointer-events="all"/><g fill="#660000" font-family="Roboto" font-weight="bold" text-anchor="middle" font-size="16px"><text x="69.5" y="75.5">g1</text></g><rect x="385" y="60" width="50" height="20" rx="10" ry="10" fill="#f8cecc" stroke="#b85450" stroke-width="2" pointer-events="all"/><g fill="#660000" font-family="Roboto" font-weight="bold" text-anchor="middle" font-size="16px"><text x="409.5" y="75.5">g3</text></g><rect x="190" y="50" width="120" height="120" rx="18" ry="18" fill="none" stroke="#b85450" stroke-opacity="0.25" stroke-width="2" pointer-events="all"/><rect x="210" y="70" width="80" height="80" fill-opacity="0.25" fill="#fff2cc" stroke="#d6b656" stroke-opacity="0.25" stroke-width="2" pointer-events="all"/><rect x="180" y="60" width="120" height="120" rx="18" ry="18" fill="none" stroke="#b85450" stroke-opacity="0.25" stroke-width="2" pointer-events="all"/><rect x="200" y="80" width="80" height="80" fill-opacity="0.25" fill="#fff2cc" stroke="#d6b656" stroke-opacity="0.25" stroke-width="2" pointer-events="all"/><rect x="170" y="70" width="120" height="120" rx="18" ry="18" fill="none" stroke="#b85450" stroke-width="2" pointer-events="all"/><path d="M 270 130 L 361.76 130" fill="none" stroke="#b85450" stroke-width="2" stroke-miterlimit="10" pointer-events="stroke"/><path d="M 367.76 130 L 359.76 134 L 361.76 130 L 359.76 126 Z" fill="#b85450" stroke="#b85450" stroke-width="2" stroke-miterlimit="10" pointer-events="all"/><rect x="190" y="90" width="80" height="80" fill="#fff2cc" stroke="#d6b656" stroke-width="2" pointer-events="all"/><g fill="#000000" font-family="Roboto" text-anchor="middle" font-size="32px"><text x="229.5" y="143.5">B</text></g><rect x="205" y="60" width="50" height="20" rx="10" ry="10" fill="#f8cecc" stroke="#b85450" stroke-width="2" pointer-events="all"/><g fill="#660000" font-family="Roboto" font-weight="bold" text-anchor="middle" font-size="16px"><text x="229.5" y="75.5">g2</text></g><rect x="170" y="10" width="140" height="20" rx="10" ry="10" fill="#d5e8d4" stroke="#82b366" stroke-width="2" pointer-events="all"/><g fill="#003300" font-family="Roboto" font-weight="bold" text-anchor="middle" font-size="16px"><text x="239.5" y="25.5">replicas = 3</text></g></g></svg>