<?xml version="1.0" encoding="UTF-8"?>
<!DOCTYPE svg PUBLIC "-//W3C//DTD SVG 1.1//EN" "http://www.w3.org/Graphics/SVG/1.1/DTD/svg11.dtd">
<svg xmlns="http://www.w3.org/2000/svg" xmlns:xlink="http://www.w3.org/1999/xlink" version="1.1" width="532px" height="711px" viewBox="-0.5 -0.5 532 711"><defs><style type="text/css">@import url(https://fonts.googleapis.com/css?family=Roboto);&#xa;</style></defs><g><rect x="11" y="11" width="510" height="133" fill="#f7f7f7" stroke="#ababab" stroke-width="2" pointer-events="all"/><rect x="11" y="150" width="510" height="133" fill="#f7f7f7" stroke="#ababab" stroke-width="2" pointer-events="all"/><rect x="11" y="289" width="510" height="133" fill="#f7f7f7" stroke="#ababab" stroke-width="2" pointer-events="all"/><rect x="11" y="428" width="510" height="133" fill="#f7f7f7" stroke="#ababab" stroke-width="2" pointer-events="all"/><rect x="11" y="567" width="510" height="133" fill="#f7f7f7" stroke="#ababab" stroke-width="2" pointer-events="all"/><path d="M 396 620 L 434.76 620" fill="none" stroke="#000000" stroke-width="2" stroke-miterlimit="10" pointer-events="stroke"/><path d="M 443.76 620 L 431.76 626 L 434.76 620 L 431.76 614 Z" fill="#000000" stroke="#000000" stroke-width="2" stroke-miterlimit="10" pointer-events="all"/><path d="M 396 202 L 434.76 202" fill="none" stroke="#000000" stroke-width="2" stroke-miterlimit="10" pointer-events="stroke"/><path d="M 443.76 202 L 431.76 208 L 434.76 202 L 431.76 196 Z" fill="#000000" stroke="#000000" stroke-width="2" stroke-miterlimit="10" pointer-events="all"/><path d="M 396 342 L 434.76 342" fill="none" stroke="#000000" stroke-width="2" stroke-miterlimit="10" pointer-events="stroke"/><path d="M 443.76 342 L 431.76 348 L 434.76 342 L 431.76 336 Z" fill="#000000" stroke="#000000" stroke-width="2" stroke-miterlimit="10" pointer-events="all"/><path d="M 396 480 L 434.76 480" fill="none" stroke="#000000" stroke-width="2" stroke-miterlimit="10" pointer-events="stroke"/><path d="M 443.76 480 L 431.76 486 L 434.76 480 L 431.76 474 Z" fill="#000000" stroke="#000000" stroke-width="2" stroke-miterlimit="10" pointer-events="all"/><path d="M 396 63 L 434.76 63" fill="none" stroke="#000000" stroke-width="2" stroke-miterlimit="10" pointer-events="stroke"/><path d="M 443.76 63 L 431.76 69 L 434.76 63 L 431.76 57 Z" fill="#000000" stroke="#000000" stroke-width="2" stroke-miterlimit="10" pointer-events="all"/><rect x="126" y="23" width="80" height="80" fill="#fff2cc" stroke="#d6b656" stroke-width="2" pointer-events="all"/><rect x="316" y="23" width="80" height="80" fill="#e1d5e7" stroke="#9673a6" stroke-width="6" pointer-events="all"/><rect x="326" y="103" width="60" height="30" fill="none" stroke="none" pointer-events="all"/><g fill="#765A82" font-family="Roboto" font-weight="bold" text-anchor="middle" font-size="20px"><text x="355.5" y="126.5">(Agg)</text></g><path d="M 76 63 L 114.76 63" fill="none" stroke="#000000" stroke-width="2" stroke-miterlimit="10" pointer-events="stroke"/><path d="M 123.76 63 L 111.76 69 L 114.76 63 L 111.76 57 Z" fill="#000000" stroke="#000000" stroke-width="2" stroke-miterlimit="10" pointer-events="all"/><rect x="20" y="395" width="140" height="20" fill="none" stroke="none" pointer-events="all"/><g fill="#999999" font-family="Roboto" font-weight="bold" font-size="16px"><text x="21.5" y="411.5">pipeline.process()</text></g><ellipse cx="47" cy="63" rx="21" ry="21" fill="#f8cecc" stroke="#b85450" stroke-width="2" pointer-events="all"/><g fill="#000000" font-family="Roboto" text-anchor="middle" font-size="16px"><text x="46.5" y="69.5">10</text></g><ellipse cx="356" cy="62" rx="21" ry="21" fill="#f8cecc" stroke="#b85450" stroke-width="2" pointer-events="all"/><g fill="#000000" font-family="Roboto" text-anchor="middle" font-size="16px"><text x="355.5" y="68.5">110</text></g><rect x="126" y="162" width="80" height="80" fill="#fff2cc" stroke="#d6b656" stroke-width="2" pointer-events="all"/><rect x="316" y="162" width="80" height="80" fill="#e1d5e7" stroke="#9673a6" stroke-width="6" pointer-events="all"/><rect x="326" y="242" width="60" height="30" fill="none" stroke="none" pointer-events="all"/><g fill="#765A82" font-family="Roboto" font-weight="bold" text-anchor="middle" font-size="20px"><text x="355.5" y="265.5">(Agg)</text></g><path d="M 76 202 L 114.76 202" fill="none" stroke="#000000" stroke-width="2" stroke-miterlimit="10" pointer-events="stroke"/><path d="M 123.76 202 L 111.76 208 L 114.76 202 L 111.76 196 Z" fill="#000000" stroke="#000000" stroke-width="2" stroke-miterlimit="10" pointer-events="all"/><ellipse cx="47" cy="202" rx="21" ry="21" fill="#ffe6cc" stroke="#d79b00" stroke-width="2" pointer-events="all"/><g fill="#000000" font-family="Roboto" text-anchor="middle" font-size="16px"><text x="46.5" y="208.5">20</text></g><ellipse cx="166" cy="202" rx="32.5" ry="20" fill="#ffe6cc" stroke="#d79b00" stroke-width="2" pointer-events="all"/><g fill="#000000" font-family="Roboto" text-anchor="middle" font-size="16px"><text x="165.5" y="208.5">20 * 11</text></g><ellipse cx="364" cy="195" rx="21" ry="21" fill="#f8cecc" stroke="#b85450" stroke-width="2" pointer-events="all"/><g fill="#000000" font-family="Roboto" text-anchor="middle" font-size="16px"><text x="363.5" y="201.5">110</text></g><ellipse cx="350" cy="210" rx="21" ry="21" fill="#ffe6cc" stroke="#d79b00" stroke-width="2" pointer-events="all"/><g fill="#000000" font-family="Roboto" text-anchor="middle" font-size="16px"><text x="349.5" y="216.5">220</text></g><rect x="126" y="302" width="80" height="80" fill="#fff2cc" stroke="#d6b656" stroke-width="2" pointer-events="all"/><rect x="316" y="302" width="80" height="80" fill="#e1d5e7" stroke="#9673a6" stroke-width="6" pointer-events="all"/><rect x="326" y="382" width="60" height="30" fill="none" stroke="none" pointer-events="all"/><g fill="#765A82" font-family="Roboto" font-weight="bold" text-anchor="middle" font-size="20px"><text x="355.5" y="405.5">(Agg)</text></g><path d="M 76 342 L 114.76 342" fill="none" stroke="#000000" stroke-width="2" stroke-miterlimit="10" pointer-events="stroke"/><path d="M 123.76 342 L 111.76 348 L 114.76 342 L 111.76 336 Z" fill="#000000" stroke="#000000" stroke-width="2" stroke-miterlimit="10" pointer-events="all"/><ellipse cx="487" cy="342" rx="21" ry="21" fill="#f8cecc" stroke="#b85450" stroke-width="2" pointer-events="all"/><g fill="#000000" font-family="Roboto" text-anchor="middle" font-size="16px"><text x="486.5" y="348.5">110</text></g><ellipse cx="473" cy="342" rx="21" ry="21" fill="#ffe6cc" stroke="#d79b00" stroke-width="2" pointer-events="all"/><g fill="#000000" font-family="Roboto" text-anchor="middle" font-size="16px"><text x="472.5" y="348.5">220</text></g><rect x="20" y="255" width="130" height="20" fill="none" stroke="none" pointer-events="all"/><g fill="#999999" font-family="Roboto" font-weight="bold" font-size="16px"><text x="21.5" y="271.5">pipeline.run(20)</text></g><rect x="20" y="116" width="130" height="20" fill="none" stroke="none" pointer-events="all"/><g fill="#999999" font-family="Roboto" font-weight="bold" font-size="16px"><text x="21.5" y="132.5">pipeline.run(10)</text></g><rect x="126" y="440" width="80" height="80" fill="#fff2cc" stroke="#d6b656" stroke-width="2" pointer-events="all"/><rect x="316" y="440" width="80" height="80" fill="#e1d5e7" stroke="#9673a6" stroke-width="6" pointer-events="all"/><rect x="326" y="520" width="60" height="30" fill="none" stroke="none" pointer-events="all"/><g fill="#765A82" font-family="Roboto" font-weight="bold" text-anchor="middle" font-size="20px"><text x="355.5" y="543.5">(Agg)</text></g><path d="M 76 480 L 114.76 480" fill="none" stroke="#000000" stroke-width="2" stroke-miterlimit="10" pointer-events="stroke"/><path d="M 123.76 480 L 111.76 486 L 114.76 480 L 111.76 474 Z" fill="#000000" stroke="#000000" stroke-width="2" stroke-miterlimit="10" pointer-events="all"/><ellipse cx="47" cy="480" rx="21" ry="21" fill="#dae8fc" stroke="#6c8ebf" stroke-width="2" pointer-events="all"/><g fill="#000000" font-family="Roboto" text-anchor="middle" font-size="16px"><text x="46.5" y="486.5">40</text></g><ellipse cx="166" cy="480" rx="32.5" ry="20" fill="#dae8fc" stroke="#6c8ebf" stroke-width="2" pointer-events="all"/><g fill="#000000" font-family="Roboto" text-anchor="middle" font-size="16px"><text x="165.5" y="486.5">40 * 11</text></g><ellipse cx="356" cy="480" rx="21" ry="21" fill="#dae8fc" stroke="#6c8ebf" stroke-width="2" pointer-events="all"/><g fill="#000000" font-family="Roboto" text-anchor="middle" font-size="16px"><text x="355.5" y="486.5">440</text></g><rect x="20" y="533" width="130" height="20" fill="none" stroke="none" pointer-events="all"/><g fill="#999999" font-family="Roboto" font-weight="bold" font-size="16px"><text x="21.5" y="549.5">pipeline.run(40)</text></g><rect x="20" y="673" width="140" height="20" fill="none" stroke="none" pointer-events="all"/><g fill="#999999" font-family="Roboto" font-weight="bold" font-size="16px"><text x="21.5" y="689.5">pipeline.process()</text></g><rect x="126" y="580" width="80" height="80" fill="#fff2cc" stroke="#d6b656" stroke-width="2" pointer-events="all"/><rect x="316" y="580" width="80" height="80" fill="#e1d5e7" stroke="#9673a6" stroke-width="6" pointer-events="all"/><rect x="326" y="660" width="60" height="30" fill="none" stroke="none" pointer-events="all"/><g fill="#765A82" font-family="Roboto" font-weight="bold" text-anchor="middle" font-size="20px"><text x="355.5" y="683.5">(Agg)</text></g><path d="M 76 620 L 114.76 620" fill="none" stroke="#000000" stroke-width="2" stroke-miterlimit="10" pointer-events="stroke"/><path d="M 123.76 620 L 111.76 626 L 114.76 620 L 111.76 614 Z" fill="#000000" stroke="#000000" stroke-width="2" stroke-miterlimit="10" pointer-events="all"/><ellipse cx="473" cy="620" rx="21" ry="21" fill="#dae8fc" stroke="#6c8ebf" stroke-width="2" pointer-events="all"/><g fill="#000000" font-family="Roboto" text-anchor="middle" font-size="16px"><text x="472.5" y="626.5">440</text></g><path d="M 206 620 L 304.76 620" fill="none" stroke="#000000" stroke-width="2" stroke-miterlimit="10" pointer-events="stroke"/><path d="M 313.76 620 L 301.76 626 L 304.76 620 L 301.76 614 Z" fill="#000000" stroke="#000000" stroke-width="2" stroke-miterlimit="10" pointer-events="all"/><path d="M 206 480 L 304.76 480" fill="none" stroke="#000000" stroke-width="2" stroke-miterlimit="10" pointer-events="stroke"/><path d="M 313.76 480 L 301.76 486 L 304.76 480 L 301.76 474 Z" fill="#000000" stroke="#000000" stroke-width="2" stroke-miterlimit="10" pointer-events="all"/><ellipse cx="257" cy="480" rx="21" ry="21" fill="#dae8fc" stroke="#6c8ebf" stroke-width="2" pointer-events="all"/><g fill="#000000" font-family="Roboto" text-anchor="middle" font-size="16px"><text x="256.5" y="486.5">440</text></g><path d="M 206 342 L 304.76 342" fill="none" stroke="#000000" stroke-width="2" stroke-miterlimit="10" pointer-events="stroke"/><path d="M 313.76 342 L 301.76 348 L 304.76 342 L 301.76 336 Z" fill="#000000" stroke="#000000" stroke-width="2" stroke-miterlimit="10" pointer-events="all"/><path d="M 206 202 L 304.76 202" fill="none" stroke="#000000" stroke-width="2" stroke-miterlimit="10" pointer-events="stroke"/><path d="M 313.76 202 L 301.76 208 L 304.76 202 L 301.76 196 Z" fill="#000000" stroke="#000000" stroke-width="2" stroke-miterlimit="10" pointer-events="all"/><path d="M 206 63 L 304.76 63" fill="none" stroke="#000000" stroke-width="2" stroke-miterlimit="10" pointer-events="stroke"/><path d="M 313.76 63 L 301.76 69 L 304.76 63 L 301.76 57 Z" fill="#000000" stroke="#000000" stroke-width="2" stroke-miterlimit="10" pointer-events="all"/><ellipse cx="257" cy="63" rx="21" ry="21" fill="#f8cecc" stroke="#b85450" stroke-width="2" pointer-events="all"/><g fill="#000000" font-family="Roboto" text-anchor="middle" font-size="16px"><text x="256.5" y="69.5">110</text></g><ellipse cx="257" cy="202" rx="21" ry="21" fill="#ffe6cc" stroke="#d79b00" stroke-width="2" pointer-events="all"/><g fill="#000000" font-family="Roboto" text-anchor="middle" font-size="16px"><text x="256.5" y="208.5">220</text></g><ellipse cx="166" cy="63" rx="32.5" ry="20" fill="#f8cecc" stroke="#b85450" stroke-width="2" pointer-events="all"/><g fill="#000000" font-family="Roboto" text-anchor="middle" font-size="16px"><text x="165.5" y="69.5">10 * 11</text></g><path d="M 362.33 595 L 381 610.59 L 362.33 626.17 L 362.33 618.09 C 345.03 618.09 331 630.14 331 645 C 331 621.85 345.03 603.09 362.33 603.09 Z" fill="none" stroke="#333333" stroke-width="4" stroke-miterlimit="10" pointer-events="all"/><path d="M 362.33 317 L 381 332.58 L 362.33 348.17 L 362.33 340.08 C 345.03 340.08 331 352.14 331 367 C 331 343.85 345.03 325.09 362.33 325.09 Z" fill="none" stroke="#333333" stroke-width="4" stroke-miterlimit="10" pointer-events="all"/><path d="M 141 595 L 155.58 595 L 166 609.8 L 176.42 595 L 191 595 L 173.29 620 L 191 645 L 176.42 645 L 166 630.2 L 155.58 645 L 141 645 L 157.67 620 Z" fill="none" stroke="#333333" stroke-opacity="0.5" stroke-width="4" stroke-miterlimit="10" pointer-events="all"/><path d="M 141 317 L 155.58 317 L 166 331.8 L 176.42 317 L 191 317 L 173.29 342 L 191 367 L 176.42 367 L 166 352.2 L 155.58 367 L 141 367 L 157.67 342 Z" fill="none" stroke="#333333" stroke-opacity="0.5" stroke-width="4" stroke-miterlimit="10" pointer-events="all"/></g></svg>