<?xml version="1.0" encoding="UTF-8"?>
<!DOCTYPE svg PUBLIC "-//W3C//DTD SVG 1.1//EN" "http://www.w3.org/Graphics/SVG/1.1/DTD/svg11.dtd">
<svg xmlns="http://www.w3.org/2000/svg" xmlns:xlink="http://www.w3.org/1999/xlink" version="1.1" width="1099px" height="204px" viewBox="-0.5 -0.5 1099 204"><defs><style type="text/css">@import url(https://fonts.googleapis.com/css?family=Roboto);&#xa;</style></defs><g><path d="M 441.02 106.82 L 441.02 96.82 L 650.5 96.82 L 650.5 85.82 L 683 101.82 L 650.5 117.82 L 650.5 106.82 Z" fill="#1a1a1a" stroke="#e6e6e6" stroke-width="4" stroke-linejoin="round" stroke-miterlimit="10" pointer-events="all"/><path d="M 754.98 106.32 L 754.98 96.32 L 964.46 96.32 L 964.46 85.32 L 996.96 101.32 L 964.46 117.32 L 964.46 106.32 Z" fill="#1a1a1a" stroke="#e6e6e6" stroke-width="4" stroke-linejoin="round" stroke-miterlimit="10" pointer-events="all"/><rect x="282.26" y="12" width="200" height="180" fill="#fff2cc" stroke="#d6b656" stroke-width="4" pointer-events="all"/><ellipse cx="1041.98" cy="102.5" rx="45" ry="45" fill="#d5e8d4" stroke="#82b366" stroke-width="4" pointer-events="all"/><g fill="#000000" font-family="Roboto" text-anchor="middle" font-size="40px"><text x="1041.48" y="120">36</text></g><rect x="685" y="12" width="200" height="180" fill="#fff2cc" stroke="#d6b656" stroke-width="4" pointer-events="all"/><rect x="685" y="12" width="200" height="60" fill="#fff2cc" stroke="#d6b656" stroke-width="4" pointer-events="all"/><path d="M 705 12 L 705 72 M 865 12 L 865 72" fill="none" stroke="#d6b656" stroke-width="4" stroke-miterlimit="10" pointer-events="all"/><g fill="#000000" font-family="Roboto" font-weight="bold" text-anchor="middle" font-size="32px"><text x="784.5" y="55.5">power: 2</text></g><ellipse cx="773" cy="125.24" rx="40" ry="40" fill="#e1d5e7" stroke="#9673a6" stroke-width="4" pointer-events="all"/><g fill="#000000" font-family="Roboto" text-anchor="middle" font-size="40px"><text x="772.5" y="142.74">6</text></g><ellipse cx="792.98" cy="132.5" rx="40" ry="40" fill="#e1d5e7" stroke="#9673a6" stroke-width="4" pointer-events="all"/><g fill="#000000" font-family="Roboto" text-anchor="middle" font-size="40px"><text x="792.48" y="150">6</text></g><ellipse cx="577.72" cy="102" rx="40" ry="40" fill="#e1d5e7" stroke="#9673a6" stroke-width="4" pointer-events="all"/><g fill="#000000" font-family="Roboto" text-anchor="middle" font-size="40px"><text x="577.22" y="119.5">6</text></g><rect x="327.52" y="80.24" width="106.58" height="86.76" rx="13.01" ry="13.01" fill="#e1d5e7" stroke="#9673a6" stroke-width="4" pointer-events="all"/><rect x="342.52" y="85.24" width="76.58" height="76.76" fill="none" stroke="none" pointer-events="all"/><g fill="#000000" font-family="Roboto" font-weight="bold" text-anchor="middle" font-size="40px"><text x="380.31" y="141.12">Σ</text></g><rect x="290.62" y="18" width="180.4" height="54.5" fill="none" stroke="none" pointer-events="all"/><g fill="#000000" font-family="Roboto" font-style="italic" text-anchor="middle" font-size="30px"><text x="380.32" y="57.75">sum</text></g><path d="M 84.26 106.92 L 84.26 96.92 L 247.76 96.92 L 247.76 85.92 L 280.26 101.92 L 247.76 117.92 L 247.76 106.92 Z" fill="#1a1a1a" stroke="#e6e6e6" stroke-width="4" stroke-linejoin="round" stroke-miterlimit="10" pointer-events="all"/><rect x="12" y="55.24" width="160" height="86.76" rx="13.01" ry="13.01" fill="#dae8fc" stroke="#6c8ebf" stroke-width="4" pointer-events="all"/><g fill="#000000" font-family="Roboto" text-anchor="middle" font-size="40px"><text x="91.5" y="116.12">1,2,3</text></g></g></svg>